<svg width="24" height="15" viewBox="0 0 24 15" fill="none" xmlns="http://www.w3.org/2000/svg">
<path d="M19.5991 12.0577C17.0753 12.0582 13.5419 12.0582 10.7793 12.0582C10.296 12.0582 9.90444 12.45 9.90444 12.9335C9.90444 13.9655 8.74249 14.5701 7.89734 13.9779L1.22289 9.30062C-0.0271778 8.42461 -0.0270195 6.57288 1.22319 5.69709L7.89862 1.02082C8.74333 0.42909 9.90444 1.03337 9.90444 2.06471C9.90444 2.54789 10.2954 2.93926 10.7783 2.93926H10.7963H10.8144H10.8325H10.8506H10.8687H10.8869H10.905H10.9232H10.9414H10.9596H10.9779H10.9961H11.0144H11.0327H11.051H11.0693H11.0877H11.106H11.1244H11.1428H11.1612H11.1796H11.1981H11.2165H11.235H11.2535H11.272H11.2905H11.3091H11.3276H11.3462H11.3648H11.3834H11.402H11.4207H11.4393H11.458H11.4767H11.4954H11.5141H11.5328H11.5516H11.5704H11.5891H11.6079H11.6267H11.6456H11.6644H11.6833H11.7021H11.721H11.7399H11.7588H11.7777H11.7967H11.8156H11.8346H11.8536H11.8726H11.8916H11.9106H11.9296H11.9487H11.9678H11.9868H12.0059H12.025H12.0441H12.0633H12.0824H12.1016H12.1207H12.1399H12.1591H12.1783H12.1975H12.2168H12.236H12.2553H12.2745H12.2938H12.3131H12.3324H12.3517H12.371H12.3904H12.4097H12.4291H12.4485H12.4679H12.4872H12.5067H12.5261H12.5455H12.5649H12.5844H12.6038H12.6233H12.6428H12.6623H12.6818H12.7013H12.7208H12.7404H12.7599H12.7795H12.799H12.8186H12.8382H12.8578H12.8774H12.897H12.9166H12.9362H12.9559H12.9755H12.9952H13.0148H13.0345H13.0542H13.0739H13.0936H13.1133H13.133H13.1527H13.1725H13.1922H13.212H13.2317H13.2515H13.2713H13.2911H13.3109H13.3307H13.3505H13.3703H13.3901H13.4099H13.4298H13.4496H13.4694H13.4893H13.5092H13.529H13.5489H13.5688H13.5887H13.6086H13.6285H13.6484H13.6683H13.6882H13.7082H13.7281H13.748H13.768H13.7879H13.8079H13.8279H13.8478H13.8678H13.8878H13.9078H13.9277H13.9477H13.9677H13.9877H14.0077H14.0278H14.0478H14.0678H14.0878H14.1079H14.1279H14.1479H14.168H14.188H14.2081H14.2281H14.2482H14.2683H14.2883H14.3084H14.3285H14.3486H14.3686H14.3887H14.4088H14.4289H14.449H14.4691H14.4892H14.5093H14.5294H14.5495H14.5696H14.5897H14.6098H14.63H14.6501H14.6702H14.6903H14.7105H14.7306H14.7507H14.7708H14.791H14.8111H14.8312H14.8514H14.8715H14.8917H14.9118H14.9319H14.9521H14.9722H14.9924H15.0125H15.0326H15.0528H15.0729H15.0931H15.1132H15.1334H15.1535H15.1737H15.1938H15.214H15.2341H15.2543H15.2744H15.2945H15.3147H15.3348H15.355H15.3751H15.3953H15.4154H15.4355H15.4557H15.4758H15.496H15.5161H15.5362H15.5564H15.5765H15.5966H15.6167H15.6369H15.657H15.6771H15.6972H15.7173H15.7374H15.7576H15.7777H15.7978H15.8179H15.838H15.8581H15.8782H15.8983H15.9184H15.9384H15.9585H15.9786H15.9987H16.0187H16.0388H16.0589H16.0789H16.099H16.1191H16.1391H16.1591H16.1792H16.1992H16.2193H16.2393H16.2593H16.2793H16.2993H16.3194H16.3394H16.3594H16.3794H16.3994H16.4193H16.4393H16.4593H16.4793H16.4992H16.5192H16.5391H16.5591H16.579H16.599H16.6189H16.6388H16.6587H16.6786H16.6986H16.7185H16.7383H16.7582H16.7781H16.798H16.8178H16.8377H16.8576H16.8774H16.8972H16.9171H16.9369H16.9567H16.9765H16.9963H17.0161H17.0359H17.0557H17.0754H17.0952H17.115H17.1347H17.1544H17.1742H17.1939H17.2136H17.2333H17.253H17.2727H17.2924H17.312H17.3317H17.3514H17.371H17.3906H17.4103H17.4299H17.4495H17.4691H17.4887H17.5082H17.5278H17.5474H17.5669H17.5864H17.606H17.6255H17.645H17.6645H17.684H17.7034H17.7229H17.7424H17.7618H17.7812H17.8007H17.8201H17.8395H17.8589H17.8782H17.8976H17.9169H17.9363H17.9556H17.9749H17.9942H18.0135H18.0328H18.0521H18.0714H18.0906H18.1098H18.1291H18.1483H18.1675H18.1867H18.2058H18.225H18.2441H18.2633H18.2824H18.3015H18.3206H18.3397H18.3587H18.3778H18.3968H18.4159H18.4349H18.4539H18.4729H18.4918H18.5108H18.5297H18.5487H18.5676H18.5865H18.6054H18.6242H18.6431H18.6619H18.6808H18.6996H18.7184H18.7372H18.7559H18.7747H18.7934H18.8122H18.8309H18.8496H18.8682H18.8869H18.9055H18.9242H18.9428H18.9614H18.98H18.9985H19.0171H19.0356H19.0541H19.0726H19.0911H19.1096H19.128H19.1465H19.1649H19.1833H19.2017H19.22H19.2384H19.2567H19.275H19.2933H19.3116H19.3299H19.3481H19.3663H19.3845H19.4027H19.4209H19.439H19.4572H19.4753H19.4934H19.5115H19.5295H19.5476H19.5656H19.5836H19.6016H19.6196H19.6375H19.6554H19.6733H19.6912H19.7091H19.727H19.7448H19.7626H19.7804H19.7982H19.8159H19.8336H19.8514H19.8691H19.8867H19.9044H19.922H19.9396H19.9572H19.9748H19.9923H20.0099H20.0274H20.0449H20.0623H20.0798H20.0972H20.1146H20.132H20.1493H20.1667H20.184H20.2013H20.2186H20.2358H20.253H20.2702H20.2874H20.3046H20.3217H20.3389H20.3559H20.373H20.3901H20.4071H20.4241H20.4411H20.458H20.475H20.4919H20.5088H20.5257H20.5425H20.5593H20.5761H20.5929H20.6096C21.2127 2.93926 21.7225 3.41362 21.7225 4.0116C21.7225 4.60959 21.2127 5.08395 20.6096 5.08395H17.2772C16.8777 5.08395 16.5644 5.39613 16.5644 5.75629C16.5644 6.11645 16.8777 6.42863 17.2772 6.42863H22.0898C22.6929 6.42863 23.2 6.90051 23.2 7.49849C23.2 8.09575 22.6936 8.57083 22.0898 8.57083H17.0899C16.6904 8.57083 16.377 8.88302 16.377 9.24317C16.377 9.60333 16.6904 9.91552 17.0899 9.91552H19.599C20.2014 9.91552 20.7119 10.3867 20.7119 10.9854C20.7119 11.5862 20.2018 12.0577 19.5991 12.0577ZM19.5991 12.0577L19.599 11.8577L19.5991 12.0577Z" fill="#ABC270" stroke="white" stroke-width="0.4"/>
</svg>
