<svg width="10" height="13" viewBox="0 0 10 13" fill="none" xmlns="http://www.w3.org/2000/svg">
<path opacity="0.5" d="M9.75 0.71748C9.75 0.458213 9.58856 0.226365 9.3454 0.136413C9.10224 0.0464616 8.82878 0.117432 8.66005 0.314282L3.70365 6.09675C3.50478 6.32876 3.50478 6.67113 3.70365 6.90314L8.66005 12.6856C8.82878 12.8825 9.10224 12.9534 9.3454 12.8635C9.58856 12.7735 9.75 12.5417 9.75 12.2824L9.75 0.71748Z" fill="#FDA867"/>
<path fill-rule="evenodd" clip-rule="evenodd" d="M6.22919 0.247064C6.48899 0.469744 6.51907 0.860866 6.29639 1.12066L1.68559 6.49993L6.29639 11.8792C6.51907 12.139 6.48899 12.5301 6.22919 12.7528C5.9694 12.9755 5.57828 12.9454 5.3556 12.6856L0.399197 6.90313C0.200327 6.67111 0.200327 6.32875 0.399197 6.09673L5.3556 0.314264C5.57828 0.0544704 5.9694 0.0243842 6.22919 0.247064Z" fill="#FDA867"/>
</svg>
