<svg width="16" height="15" viewBox="0 0 16 15" fill="none" xmlns="http://www.w3.org/2000/svg">
<path d="M7.96115 0.648438C8.76887 0.648438 9.42365 1.27804 9.42365 2.05469V6.27348H13.8112C14.6189 6.27348 15.2737 6.90308 15.2737 7.67973C15.2737 8.45638 14.6189 9.08598 13.8112 9.08598H9.42365L9.42365 13.3047C9.42365 14.0813 8.76887 14.7109 7.96115 14.7109C7.15343 14.7109 6.49865 14.0813 6.49865 13.3047V9.08598H2.11115C1.30343 9.08598 0.648651 8.45638 0.648651 7.67973C0.648651 6.90308 1.30343 6.27348 2.11115 6.27348H6.49865L6.49865 2.05469C6.49865 1.27804 7.15344 0.648438 7.96115 0.648438Z" fill="#FDA867"/>
</svg>
