<svg fill="none" height="24" viewBox="0 0 24 24" width="24" xmlns="http://www.w3.org/2000/svg"><g fill="#1c274d"><path d="m3.46447 20.5356c1.46446 1.4645 3.82148 1.4645 8.53553 1.4645 4.714 0 7.0711 0 8.5355-1.4645 1.4645-1.4645 1.4645-3.8216 1.4645-8.5356 0-4.71405 0-7.07107-1.4645-8.53553-1.4644-1.46447-3.8215-1.46447-8.5355-1.46447-4.71405 0-7.07107 0-8.53553 1.46447-1.46447 1.46446-1.46447 3.82155-1.46447 8.53563 0 4.714 0 7.071 1.46447 8.5355z" opacity=".5"/><path d="m7.7649 9.89758c-.0146-.25334-.0149-.59325-.0149-1.08998v-6.73886c1.1558-.06874 2.5496-.06874 4.25-.06874s3.0942 0 4.25.06874v6.73886c0 .49673-.0003.83664-.0149 1.08998-.0151.26252-.0428.34322-.0497.35872-.1471.3313-.5101.5099-.8624.4244-.0164-.004-.0973-.0314-.3145-.1795-.2096-.143-.4791-.3502-.8727-.6532l-.067-.05164c-.3702-.28542-.6587-.50785-.973-.6444-.699-.30368-1.4926-.30368-2.1916 0-.3143.13655-.6028.35898-.973.6444l-.06701.05164c-.39357.303-.66307.5102-.87271.6532-.2172.1481-.29806.1755-.31453.1795-.35224.0855-.71524-.0931-.86238-.4244-.00688-.0155-.03454-.0962-.04967-.35872z"/></g></svg>