<svg width="25" height="25" viewBox="0 0 25 25" fill="none" xmlns="http://www.w3.org/2000/svg">
<rect x="0.5" y="0.5" width="24" height="24" rx="12" stroke="white"/>
<path opacity="0.5" d="M12.5 25C19.4036 25 25 19.4036 25 12.5C25 5.59644 19.4036 0 12.5 0C5.59644 0 0 5.59644 0 12.5C0 19.4036 5.59644 25 12.5 25Z" fill="white"/>
<path fill-rule="evenodd" clip-rule="evenodd" d="M12.3787 5.88232C13.1401 5.88232 13.7574 6.43785 13.7574 7.12313V13.2268L17.9491 16.9994C18.4875 17.484 18.4875 18.2696 17.9491 18.7542C17.4107 19.2388 16.5378 19.2388 15.9994 18.7542L11.4038 14.6182C11.1453 14.3855 11 14.0699 11 13.7408V7.12313C11 6.43785 11.6173 5.88232 12.3787 5.88232Z" fill="white"/>
</svg>
