<svg fill="none" height="24" viewBox="0 0 24 24" width="24" xmlns="http://www.w3.org/2000/svg"><g fill="#1c274c"><path d="m21.1938 2.80624c1.0749 1.075 1.0749 2.81791 0 3.8929l-.4956.49555c-.1443-.03124-.326-.0788-.5331-.15065-.5543-.19232-1.2828-.55577-1.9681-1.24104-.6853-.68526-1.0487-1.41377-1.241-1.9681-.0719-.20709-.1194-.38881-.1507-.53311l.4956-.49555c1.075-1.07499 2.8179-1.07499 3.8929 0z"/><path d="m14.5801 13.3128c-.404.404-.606.606-.8288.7798-.2627.2049-.547.3806-.8478.524-.255.1215-.526.2118-1.0681.3925l-2.85831.9528c-.26674.0889-.56083.0195-.75965-.1793-.19882-.1989-.26824-.4929-.17933-.7597l.95278-2.8583c.18068-.5421.27102-.8131.39255-1.0681.14335-.3008.31905-.5851.52399-.8478.17377-.2228.37577-.42476.77977-.82877l4.9161-4.91608c.2637.69419.726 1.55278 1.533 2.35981.8071.80703 1.6657 1.2693 2.3599 1.53308z"/><path d="m20.5355 20.5355c1.4645-1.4644 1.4645-3.8215 1.4645-8.5355 0-1.5483 0-2.84226-.0519-3.9339l-6.3621 6.3622c-.3513.3514-.6152.6154-.9122.847-.3486.272-.7258.5051-1.125.6953-.34.1621-.6942.28-1.1655.437l-2.93187.9773c-.80575.2686-1.69409.0589-2.29465-.5417-.60057-.6005-.81027-1.4889-.54169-2.2946l.97726-2.9319c.15701-.4713.27497-.8255.437-1.1655.19023-.3992.42337-.7764.69531-1.12505.23164-.29697.49566-.56087.84707-.91211l6.36217-6.36216c-1.0916-.05188-2.3856-.05188-3.9339-.05188-4.71405 0-7.07107 0-8.53553 1.46447-1.46447 1.46446-1.46447 3.82148-1.46447 8.53553 0 4.714 0 7.0711 1.46447 8.5355 1.46446 1.4645 3.82148 1.4645 8.53553 1.4645 4.714 0 7.0711 0 8.5355-1.4645z"/></g></svg>