<svg fill="none" height="24" viewBox="0 0 24 24" width="24" xmlns="http://www.w3.org/2000/svg"><path clip-rule="evenodd" d="m2.33537 7.87495c-.54046 1.12734-.35074 2.44585.0287 5.08295l.27877 1.9373c.48741 3.3875.73112 5.0812 1.90619 6.093 1.17506 1.0118 2.89834 1.0118 6.34487 1.0118h2.2122c3.4465 0 5.1698 0 6.3449-1.0118 1.175-1.0118 1.4187-2.7055 1.9062-6.093l.2787-1.9373c.3795-2.6371.5692-3.95561.0287-5.08295-.5404-1.12735-1.6908-1.81261-3.9915-3.18314l-1.3849-.82494c-2.0892-1.24458-3.1339-1.86687-4.2882-1.86687s-2.19896.62229-4.28825 1.86687l-1.38484.82494c-2.30072 1.37053-3.45108 2.05579-3.99154 3.18314zm5.91473 10.12485c0-.4142.33579-.75.75-.75h6c.4142 0 .75.3358.75.75s-.3358.75-.75.75h-6c-.41421 0-.75-.3358-.75-.75z" fill="#1c274c" fill-rule="evenodd"/></svg>