<svg width="18" height="19" viewBox="0 0 18 19" fill="none" xmlns="http://www.w3.org/2000/svg">
<path opacity="0.6" d="M11.4 0H10.45C7.76299 0 6.41949 0 5.58475 0.834746C4.75 1.66949 4.75 3.01299 4.75 5.7V13.3C4.75 15.987 4.75 17.3305 5.58475 18.1653C6.41949 19 7.76299 19 10.45 19H11.4C14.087 19 15.4305 19 16.2653 18.1653C17.1 17.3305 17.1 15.987 17.1 13.3V5.7C17.1 3.01299 17.1 1.66949 16.2653 0.834746C15.4305 0 14.087 0 11.4 0Z" fill="#FF0000" fill-opacity="0.3"/>
<path opacity="0.4" d="M4.75 5.7C4.75 4.23937 4.75 3.17573 4.88408 2.375H4.75C2.51083 2.375 1.39124 2.375 0.695621 3.07062C0 3.76624 0 4.88583 0 7.125V11.875C0 14.1142 0 15.2338 0.695621 15.9294C1.39124 16.625 2.51083 16.625 4.75 16.625H4.88408C4.75 15.8243 4.75 14.7606 4.75 13.3V10.2125V8.7875V5.7Z" fill="#FF0000" fill-opacity="0.3"/>
<path fill-rule="evenodd" clip-rule="evenodd" d="M1.39619 8.99638C1.11794 9.27463 1.11794 9.72576 1.39619 10.004L3.29619 11.904C3.57443 12.1823 4.02557 12.1823 4.30381 11.904C4.58206 11.6258 4.58206 11.1746 4.30381 10.8964L3.62013 10.2127L10.45 10.2127C10.8435 10.2127 11.1625 9.8937 11.1625 9.50019C11.1625 9.10669 10.8435 8.78769 10.45 8.78769L3.62013 8.78769L4.30381 8.10401C4.58206 7.82576 4.58206 7.37463 4.30381 7.09638C4.02557 6.81813 3.57443 6.81813 3.29619 7.09638L1.39619 8.99638Z" fill="#FF0000" fill-opacity="0.3"/>
</svg>
