<svg width="67" height="60" viewBox="0 0 67 60" fill="none" xmlns="http://www.w3.org/2000/svg">
<path d="M10.142 14V10.85H12.088V14H10.142ZM7.776 11.62V10.206C7.776 9.94467 7.68733 9.71133 7.51 9.506C7.33267 9.29133 7.07133 9.12333 6.726 9.002C6.38067 8.88067 5.956 8.82 5.452 8.82C5.10667 8.82 4.74733 8.85733 4.374 8.932C4.01 9.00667 3.69267 9.1 3.422 9.212L2.232 6.566C2.71733 6.26733 3.23533 6.04333 3.786 5.894C4.33667 5.74467 4.892 5.67 5.452 5.67C6.096 5.67 6.71667 5.768 7.314 5.964C7.91133 6.15067 8.448 6.43533 8.924 6.818C9.4 7.20067 9.778 7.67667 10.058 8.246C10.338 8.806 10.478 9.45933 10.478 10.206V11.62H7.776ZM6.516 19.572C5.89067 19.572 5.284 19.4787 4.696 19.292C4.108 19.1147 3.58067 18.8487 3.114 18.494C2.64733 18.1393 2.27867 17.7007 2.008 17.178C1.73733 16.6647 1.602 16.0673 1.602 15.386C1.602 14.826 1.714 14.28 1.938 13.748C2.17133 13.2067 2.51667 12.7213 2.974 12.292C3.43133 11.8533 4.00067 11.5033 4.682 11.242C5.37267 10.9807 6.17533 10.85 7.09 10.85V14C6.51133 14 6.012 14.07 5.592 14.21C5.172 14.35 4.85 14.5227 4.626 14.728C4.41133 14.9427 4.304 15.1573 4.304 15.372C4.304 15.54 4.38333 15.7033 4.542 15.862C4.70067 16.0207 4.94333 16.1513 5.27 16.254C5.59667 16.3567 6.012 16.408 6.516 16.408C6.74933 16.408 6.978 16.3987 7.202 16.38C7.43533 16.3613 7.65467 16.3333 7.86 16.296L8.84 19.138C8.46667 19.2873 8.084 19.3947 7.692 19.46C7.3 19.5347 6.908 19.572 6.516 19.572ZM7.09 14V10.85H10.94L10.338 14H7.09ZM12.088 14V10.85C12.1627 10.85 12.228 10.9947 12.284 11.284C12.34 11.564 12.368 11.9373 12.368 12.404C12.368 12.8893 12.34 13.2767 12.284 13.566C12.228 13.8553 12.1627 14 12.088 14ZM12.0879 14V10.85H15.6159V14H12.0879ZM15.6159 14V10.85C15.6906 10.85 15.7559 10.9947 15.8119 11.284C15.8679 11.564 15.8959 11.9373 15.8959 12.404C15.8959 12.8893 15.8679 13.2767 15.8119 13.566C15.7559 13.8553 15.6906 14 15.6159 14ZM12.0879 14C12.0132 14 11.9479 13.8553 11.8919 13.566C11.8359 13.2767 11.8079 12.8893 11.8079 12.404C11.8079 11.9373 11.8359 11.564 11.8919 11.284C11.9479 10.9947 12.0132 10.85 12.0879 10.85V14ZM15.6152 14V10.85H19.1432V14H15.6152ZM19.1432 14V10.85C19.2179 10.85 19.2832 10.9947 19.3392 11.284C19.3952 11.564 19.4232 11.9373 19.4232 12.404C19.4232 12.8893 19.3952 13.2767 19.3392 13.566C19.2832 13.8553 19.2179 14 19.1432 14ZM15.6152 14C15.5406 14 15.4752 13.8553 15.4192 13.566C15.3632 13.2767 15.3352 12.8893 15.3352 12.404C15.3352 11.9373 15.3632 11.564 15.4192 11.284C15.4752 10.9947 15.5406 10.85 15.6152 10.85V14ZM19.1426 14V10.85H22.6706V14H19.1426ZM22.6706 14V10.85C22.7452 10.85 22.8106 10.9947 22.8666 11.284C22.9226 11.564 22.9506 11.9373 22.9506 12.404C22.9506 12.8893 22.9226 13.2767 22.8666 13.566C22.8106 13.8553 22.7452 14 22.6706 14ZM19.1426 14C19.0679 14 19.0026 13.8553 18.9466 13.566C18.8906 13.2767 18.8626 12.8893 18.8626 12.404C18.8626 11.9373 18.8906 11.564 18.9466 11.284C19.0026 10.9947 19.0679 10.85 19.1426 10.85V14ZM22.6699 14V10.85H26.1979V14H22.6699ZM26.1979 14V10.85C26.2726 10.85 26.3379 10.9947 26.3939 11.284C26.4499 11.564 26.4779 11.9373 26.4779 12.404C26.4779 12.8893 26.4499 13.2767 26.3939 13.566C26.3379 13.8553 26.2726 14 26.1979 14ZM22.6699 14C22.5953 14 22.5299 13.8553 22.4739 13.566C22.4179 13.2767 22.3899 12.8893 22.3899 12.404C22.3899 11.9373 22.4179 11.564 22.4739 11.284C22.5299 10.9947 22.5953 10.85 22.6699 10.85V14ZM26.1973 14V10.85H29.7253V14H26.1973ZM29.7253 14V10.85C29.7999 10.85 29.8653 10.9947 29.9213 11.284C29.9773 11.564 30.0053 11.9373 30.0053 12.404C30.0053 12.8893 29.9773 13.2767 29.9213 13.566C29.8653 13.8553 29.7999 14 29.7253 14ZM26.1973 14C26.1226 14 26.0573 13.8553 26.0013 13.566C25.9453 13.2767 25.9173 12.8893 25.9173 12.404C25.9173 11.9373 25.9453 11.564 26.0013 11.284C26.0573 10.9947 26.1226 10.85 26.1973 10.85V14ZM29.7246 14V10.85H33.2526V14H29.7246ZM33.2526 14V10.85C33.3273 10.85 33.3926 10.9947 33.4486 11.284C33.5046 11.564 33.5326 11.9373 33.5326 12.404C33.5326 12.8893 33.5046 13.2767 33.4486 13.566C33.3926 13.8553 33.3273 14 33.2526 14ZM29.7246 14C29.6499 14 29.5846 13.8553 29.5286 13.566C29.4726 13.2767 29.4446 12.8893 29.4446 12.404C29.4446 11.9373 29.4726 11.564 29.5286 11.284C29.5846 10.9947 29.6499 10.85 29.7246 10.85V14ZM33.252 14V10.85H36.78V14H33.252ZM36.78 14V10.85C36.8546 10.85 36.92 10.9947 36.976 11.284C37.032 11.564 37.06 11.9373 37.06 12.404C37.06 12.8893 37.032 13.2767 36.976 13.566C36.92 13.8553 36.8546 14 36.78 14ZM33.252 14C33.1773 14 33.112 13.8553 33.056 13.566C33 13.2767 32.972 12.8893 32.972 12.404C32.972 11.9373 33 11.564 33.056 11.284C33.112 10.9947 33.1773 10.85 33.252 10.85V14ZM36.7793 14V10.85H40.3073V14H36.7793ZM40.3073 14V10.85C40.382 10.85 40.4473 10.9947 40.5033 11.284C40.5593 11.564 40.5873 11.9373 40.5873 12.404C40.5873 12.8893 40.5593 13.2767 40.5033 13.566C40.4473 13.8553 40.382 14 40.3073 14ZM36.7793 14C36.7046 14 36.6393 13.8553 36.5833 13.566C36.5273 13.2767 36.4993 12.8893 36.4993 12.404C36.4993 11.9373 36.5273 11.564 36.5833 11.284C36.6393 10.9947 36.7046 10.85 36.7793 10.85V14ZM40.3066 14V10.85H43.8346V14H40.3066ZM43.8346 14V10.85C43.9093 10.85 43.9746 10.9947 44.0306 11.284C44.0866 11.564 44.1146 11.9373 44.1146 12.404C44.1146 12.8893 44.0866 13.2767 44.0306 13.566C43.9746 13.8553 43.9093 14 43.8346 14ZM40.3066 14C40.232 14 40.1666 13.8553 40.1106 13.566C40.0546 13.2767 40.0266 12.8893 40.0266 12.404C40.0266 11.9373 40.0546 11.564 40.1106 11.284C40.1666 10.9947 40.232 10.85 40.3066 10.85V14ZM43.834 14V10.85H47.362V14H43.834ZM47.362 14V10.85C47.4367 10.85 47.502 10.9947 47.558 11.284C47.614 11.564 47.642 11.9373 47.642 12.404C47.642 12.8893 47.614 13.2767 47.558 13.566C47.502 13.8553 47.4367 14 47.362 14ZM43.834 14C43.7593 14 43.694 13.8553 43.638 13.566C43.582 13.2767 43.554 12.8893 43.554 12.404C43.554 11.9373 43.582 11.564 43.638 11.284C43.694 10.9947 43.7593 10.85 43.834 10.85V14ZM47.3613 14V10.85H50.8893V14H47.3613ZM50.8893 14V10.85C50.964 10.85 51.0293 10.9947 51.0853 11.284C51.1413 11.564 51.1693 11.9373 51.1693 12.404C51.1693 12.8893 51.1413 13.2767 51.0853 13.566C51.0293 13.8553 50.964 14 50.8893 14ZM47.3613 14C47.2867 14 47.2213 13.8553 47.1653 13.566C47.1093 13.2767 47.0813 12.8893 47.0813 12.404C47.0813 11.9373 47.1093 11.564 47.1653 11.284C47.2213 10.9947 47.2867 10.85 47.3613 10.85V14ZM53.1147 6.482H55.8167V14H50.8887V10.85H53.1147V6.482ZM50.8887 14C50.814 14 50.7487 13.8553 50.6927 13.566C50.6367 13.2767 50.6087 12.8893 50.6087 12.404C50.6087 11.9373 50.6367 11.564 50.6927 11.284C50.7487 10.9947 50.814 10.85 50.8887 10.85V14ZM54.8227 17.36C54.496 17.36 54.2253 17.2573 54.0107 17.052C53.8053 16.8467 53.7027 16.5807 53.7027 16.254C53.7027 15.9273 53.8053 15.6567 54.0107 15.442C54.2253 15.2273 54.496 15.12 54.8227 15.12C55.1493 15.12 55.42 15.2273 55.6347 15.442C55.8493 15.6567 55.9567 15.9273 55.9567 16.254C55.9567 16.5807 55.8493 16.8467 55.6347 17.052C55.42 17.2573 55.1493 17.36 54.8227 17.36ZM52.2747 17.36C51.948 17.36 51.6773 17.2573 51.4627 17.052C51.2573 16.8467 51.1547 16.5807 51.1547 16.254C51.1547 15.9273 51.2573 15.6567 51.4627 15.442C51.6773 15.2273 51.948 15.12 52.2747 15.12C52.6013 15.12 52.872 15.2273 53.0867 15.442C53.3013 15.6567 53.4087 15.9273 53.4087 16.254C53.4087 16.5807 53.3013 16.8467 53.0867 17.052C52.872 17.2573 52.6013 17.36 52.2747 17.36ZM57.6382 14V1.386H60.3402V14H57.6382ZM61.1699 15.148C61.6646 15.12 62.0426 15.0593 62.3039 14.966C62.5746 14.8727 62.7613 14.7467 62.8639 14.588C62.9666 14.4293 63.0179 14.238 63.0179 14.014V6.482H65.7199V14.014C65.7199 14.8073 65.5519 15.5027 65.2159 16.1C64.8893 16.6973 64.4226 17.1687 63.8159 17.514C63.2186 17.8687 62.5046 18.074 61.6739 18.13L61.1699 15.148Z" fill="#FDA867"/>
<path d="M1.512 46V29.608H7.92C9.232 29.608 10.328 29.776 11.208 30.112C12.104 30.448 12.768 31.008 13.2 31.792C13.648 32.576 13.872 33.64 13.872 34.984C13.872 36.168 13.656 37.168 13.224 37.984C12.808 38.784 12.168 39.376 11.304 39.76L13.872 46H10.392L8.232 40.504H4.824V46H1.512ZM4.824 37.792H7.992C8.6 37.792 9.088 37.68 9.456 37.456C9.824 37.216 10.088 36.888 10.248 36.472C10.408 36.04 10.488 35.552 10.488 35.008C10.488 34.112 10.28 33.44 9.864 32.992C9.448 32.544 8.8 32.32 7.92 32.32H4.824V37.792ZM19.2531 46.264C18.0051 46.264 17.0611 45.952 16.4211 45.328C15.7971 44.688 15.4851 43.728 15.4851 42.448C15.4851 41.552 15.6451 40.856 15.9651 40.36C16.2851 39.848 16.7571 39.48 17.3811 39.256C18.0211 39.016 18.7971 38.872 19.7091 38.824L22.6371 38.56V37.84C22.6371 37.264 22.4931 36.864 22.2051 36.64C21.9171 36.4 21.4931 36.28 20.9331 36.28C20.4851 36.28 19.9651 36.296 19.3731 36.328C18.7971 36.36 18.2211 36.4 17.6451 36.448C17.0851 36.496 16.5971 36.544 16.1811 36.592L16.0851 34.336C16.5011 34.24 16.9971 34.144 17.5731 34.048C18.1651 33.936 18.7811 33.848 19.4211 33.784C20.0611 33.72 20.6531 33.688 21.1971 33.688C22.2211 33.688 23.0771 33.816 23.7651 34.072C24.4531 34.328 24.9731 34.752 25.3251 35.344C25.6771 35.92 25.8531 36.704 25.8531 37.696V43.192C25.8851 43.416 26.0051 43.592 26.2131 43.72C26.4211 43.832 26.6611 43.912 26.9331 43.96L26.8611 46.168C26.6051 46.168 26.3491 46.168 26.0931 46.168C25.8531 46.184 25.6211 46.184 25.3971 46.168C25.1731 46.168 24.9731 46.152 24.7971 46.12C24.4291 46.072 24.1091 45.976 23.8371 45.832C23.5811 45.688 23.3731 45.536 23.2131 45.376C22.9571 45.488 22.6131 45.616 22.1811 45.76C21.7491 45.904 21.2771 46.024 20.7651 46.12C20.2691 46.216 19.7651 46.264 19.2531 46.264ZM20.0211 43.888C20.3251 43.888 20.6451 43.856 20.9811 43.792C21.3171 43.728 21.6291 43.656 21.9171 43.576C22.2211 43.48 22.4611 43.392 22.6371 43.312V40.552L20.1891 40.768C19.6611 40.816 19.2771 40.976 19.0371 41.248C18.8131 41.504 18.7011 41.872 18.7011 42.352C18.7011 42.832 18.8051 43.208 19.0131 43.48C19.2371 43.752 19.5731 43.888 20.0211 43.888ZM31.3189 51.064L32.8549 46H30.2869L27.4309 33.952H30.7669L32.9029 43.288H33.5269L35.6629 33.952H38.8789L34.7269 51.064H31.3189ZM45.2389 46.264C43.9109 46.264 42.8549 46.04 42.0709 45.592C41.3029 45.144 40.7509 44.464 40.4149 43.552C40.0789 42.64 39.9109 41.496 39.9109 40.12C39.9109 38.632 40.1189 37.416 40.5349 36.472C40.9669 35.528 41.5909 34.832 42.4069 34.384C43.2229 33.92 44.2309 33.688 45.4309 33.688C47.2069 33.688 48.5429 34.136 49.4389 35.032C50.3509 35.928 50.8069 37.344 50.8069 39.28L50.6629 41.056H43.1269C43.1429 41.952 43.3269 42.624 43.6789 43.072C44.0309 43.52 44.6389 43.744 45.5029 43.744C45.9989 43.744 46.5429 43.736 47.1349 43.72C47.7269 43.688 48.3109 43.656 48.8869 43.624C49.4789 43.592 49.9829 43.56 50.3989 43.528L50.4709 45.76C50.0709 45.824 49.5669 45.896 48.9589 45.976C48.3509 46.056 47.7189 46.12 47.0629 46.168C46.4229 46.232 45.8149 46.264 45.2389 46.264ZM43.1269 39.016H47.6149C47.6149 37.928 47.4389 37.168 47.0869 36.736C46.7509 36.304 46.1989 36.088 45.4309 36.088C44.9189 36.088 44.4949 36.184 44.1589 36.376C43.8229 36.568 43.5669 36.88 43.3909 37.312C43.2149 37.744 43.1269 38.312 43.1269 39.016ZM52.9294 46V29.032H56.1214V34.384C56.3934 34.288 56.7134 34.192 57.0814 34.096C57.4654 33.984 57.8574 33.888 58.2574 33.808C58.6734 33.728 59.0494 33.688 59.3854 33.688C60.2334 33.688 60.9294 33.8 61.4734 34.024C62.0334 34.232 62.4734 34.576 62.7934 35.056C63.1134 35.52 63.3374 36.136 63.4654 36.904C63.6094 37.672 63.6814 38.6 63.6814 39.688V46H60.4654V39.928C60.4654 39.096 60.4174 38.432 60.3214 37.936C60.2254 37.424 60.0414 37.056 59.7694 36.832C59.5134 36.608 59.1134 36.496 58.5694 36.496C58.2814 36.496 57.9854 36.52 57.6814 36.568C57.3774 36.616 57.0814 36.68 56.7934 36.76C56.5214 36.84 56.2974 36.912 56.1214 36.976V46H52.9294Z" fill="#FDA867"/>
<path d="M40.8905 18.2198C37.8527 18.2204 33.6042 18.2204 30.2718 18.2204C29.6436 18.2204 29.1345 18.7297 29.1345 19.3579C29.1345 20.6179 27.7022 21.3429 26.6868 20.597L18.0762 14.2716C16.8793 13.3924 16.8795 11.6044 18.0765 10.7254L26.6884 4.40127C27.7033 3.65602 29.1345 4.3807 29.1345 5.6398C29.1345 6.2677 29.6427 6.7764 30.2702 6.7764H30.292H30.3138H30.3357H30.3575H30.3794H30.4013H30.4232H30.4451H30.4671H30.489H30.511H30.533H30.5551H30.5771H30.5992H30.6213H30.6435H30.6656H30.6878H30.7099H30.7321H30.7544H30.7766H30.7989H30.8212H30.8435H30.8658H30.8881H30.9105H30.9329H30.9553H30.9777H31.0001H31.0226H31.0451H31.0676H31.0901H31.1126H31.1352H31.1577H31.1803H31.2029H31.2256H31.2482H31.2709H31.2935H31.3162H31.339H31.3617H31.3844H31.4072H31.43H31.4528H31.4756H31.4984H31.5213H31.5441H31.567H31.5899H31.6128H31.6358H31.6587H31.6817H31.7047H31.7277H31.7507H31.7737H31.7968H31.8198H31.8429H31.866H31.8891H31.9122H31.9353H31.9585H31.9816H32.0048H32.028H32.0512H32.0745H32.0977H32.1209H32.1442H32.1675H32.1908H32.2141H32.2374H32.2607H32.2841H32.3075H32.3308H32.3542H32.3776H32.401H32.4245H32.4479H32.4714H32.4948H32.5183H32.5418H32.5653H32.5888H32.6123H32.6359H32.6594H32.683H32.7066H32.7301H32.7537H32.7773H32.801H32.8246H32.8482H32.8719H32.8956H32.9192H32.9429H32.9666H32.9903H33.014H33.0378H33.0615H33.0853H33.109H33.1328H33.1566H33.1803H33.2041H33.2279H33.2518H33.2756H33.2994H33.3233H33.3471H33.371H33.3949H33.4187H33.4426H33.4665H33.4904H33.5143H33.5383H33.5622H33.5861H33.6101H33.634H33.658H33.682H33.7059H33.7299H33.7539H33.7779H33.8019H33.8259H33.8499H33.874H33.898H33.922H33.9461H33.9701H33.9942H34.0183H34.0423H34.0664H34.0905H34.1146H34.1387H34.1628H34.1869H34.211H34.2351H34.2593H34.2834H34.3075H34.3317H34.3558H34.3799H34.4041H34.4283H34.4524H34.4766H34.5008H34.5249H34.5491H34.5733H34.5975H34.6217H34.6459H34.6701H34.6943H34.7185H34.7427H34.7669H34.7911H34.8153H34.8395H34.8638H34.888H34.9122H34.9364H34.9607H34.9849H35.0091H35.0334H35.0576H35.0819H35.1061H35.1304H35.1546H35.1789H35.2031H35.2274H35.2516H35.2759H35.3001H35.3244H35.3486H35.3729H35.3972H35.4214H35.4457H35.4699H35.4942H35.5185H35.5427H35.567H35.5912H35.6155H35.6398H35.664H35.6883H35.7125H35.7368H35.7611H35.7853H35.8096H35.8338H35.8581H35.8823H35.9066H35.9308H35.9551H35.9793H36.0035H36.0278H36.052H36.0763H36.1005H36.1247H36.149H36.1732H36.1974H36.2216H36.2458H36.2701H36.2943H36.3185H36.3427H36.3669H36.3911H36.4153H36.4395H36.4637H36.4878H36.512H36.5362H36.5604H36.5845H36.6087H36.6329H36.657H36.6812H36.7053H36.7295H36.7536H36.7777H36.8018H36.826H36.8501H36.8742H36.8983H36.9224H36.9465H36.9706H36.9946H37.0187H37.0428H37.0668H37.0909H37.115H37.139H37.163H37.1871H37.2111H37.2351H37.2591H37.2831H37.3071H37.3311H37.3551H37.379H37.403H37.427H37.4509H37.4749H37.4988H37.5227H37.5466H37.5705H37.5944H37.6183H37.6422H37.6661H37.69H37.7138H37.7377H37.7615H37.7853H37.8091H37.833H37.8568H37.8805H37.9043H37.9281H37.9519H37.9756H37.9994H38.0231H38.0468H38.0705H38.0942H38.1179H38.1416H38.1653H38.1889H38.2126H38.2362H38.2598H38.2834H38.307H38.3306H38.3542H38.3778H38.4013H38.4249H38.4484H38.4719H38.4954H38.5189H38.5424H38.5659H38.5893H38.6128H38.6362H38.6596H38.683H38.7064H38.7298H38.7532H38.7765H38.7999H38.8232H38.8465H38.8698H38.8931H38.9164H38.9396H38.9629H38.9861H39.0093H39.0325H39.0557H39.0789H39.102H39.1252H39.1483H39.1714H39.1945H39.2176H39.2406H39.2637H39.2867H39.3097H39.3327H39.3557H39.3787H39.4016H39.4246H39.4475H39.4704H39.4933H39.5162H39.539H39.5619H39.5847H39.6075H39.6303H39.6531H39.6758H39.6986H39.7213H39.744H39.7667H39.7893H39.812H39.8346H39.8572H39.8798H39.9024H39.925H39.9475H39.97H39.9925H40.015H40.0375H40.0599H40.0823H40.1048H40.1271H40.1495H40.1719H40.1942H40.2165H40.2388H40.2611H40.2833H40.3055H40.3278H40.35H40.3721H40.3943H40.4164H40.4385H40.4606H40.4827H40.5047H40.5267H40.5488H40.5707H40.5927H40.6146H40.6366H40.6585H40.6803H40.7022H40.724H40.7458H40.7676H40.7894H40.8111H40.8329H40.8546H40.8762H40.8979H40.9195H40.9411H40.9627H40.9843H41.0058H41.0273H41.0488H41.0703H41.0917H41.1132H41.1346H41.1559H41.1773H41.1986H41.2199H41.2412H41.2624H41.2837H41.3049H41.3261H41.3472H41.3683H41.3894H41.4105H41.4316H41.4526H41.4736H41.4946H41.5156H41.5365H41.5574H41.5783H41.5991H41.6199H41.6407H41.6615H41.6822H41.703H41.7237H41.7443H41.765H41.7856H41.8062H41.8267H41.8472H41.8678H41.8882H41.9087H41.9291H41.9495H41.9699H41.9902H42.0105H42.0308H42.051H42.0713H42.0915H42.1116C42.8282 6.7764 43.4146 7.36442 43.4146 8.08137C43.4146 8.79831 42.8282 9.38633 42.1116 9.38633H38.085C37.59 9.38633 37.182 9.7946 37.182 10.2913C37.182 10.788 37.59 11.1963 38.085 11.1963H43.9001C44.6167 11.1963 45.2 11.7811 45.2 12.4981C45.2 13.2143 44.6174 13.8031 43.9001 13.8031H37.8586C37.3636 13.8031 36.9556 14.2113 36.9556 14.708C36.9556 15.2047 37.3636 15.613 37.8586 15.613H40.8905C41.6063 15.613 42.1935 16.1971 42.1935 16.9148C42.1935 17.6353 41.6067 18.2198 40.8905 18.2198ZM40.8905 18.2198L40.8905 18.0198L40.8905 18.2198Z" fill="#ABC270" stroke="#FDA867" stroke-width="0.4"/>
</svg>
