<svg width="66" height="22" viewBox="0 0 66 22" fill="none" xmlns="http://www.w3.org/2000/svg">
<path d="M9.142 14V10.85H11.088V14H9.142ZM6.776 11.62V10.206C6.776 9.94467 6.68733 9.71133 6.51 9.506C6.33267 9.29133 6.07133 9.12333 5.726 9.002C5.38067 8.88067 4.956 8.82 4.452 8.82C4.10667 8.82 3.74733 8.85733 3.374 8.932C3.01 9.00667 2.69267 9.1 2.422 9.212L1.232 6.566C1.71733 6.26733 2.23533 6.04333 2.786 5.894C3.33667 5.74467 3.892 5.67 4.452 5.67C5.096 5.67 5.71667 5.768 6.314 5.964C6.91133 6.15067 7.448 6.43533 7.924 6.818C8.4 7.20067 8.778 7.67667 9.058 8.246C9.338 8.806 9.478 9.45933 9.478 10.206V11.62H6.776ZM5.516 19.572C4.89067 19.572 4.284 19.4787 3.696 19.292C3.108 19.1147 2.58067 18.8487 2.114 18.494C1.64733 18.1393 1.27867 17.7007 1.008 17.178C0.737333 16.6647 0.602 16.0673 0.602 15.386C0.602 14.826 0.714 14.28 0.938 13.748C1.17133 13.2067 1.51667 12.7213 1.974 12.292C2.43133 11.8533 3.00067 11.5033 3.682 11.242C4.37267 10.9807 5.17533 10.85 6.09 10.85V14C5.51133 14 5.012 14.07 4.592 14.21C4.172 14.35 3.85 14.5227 3.626 14.728C3.41133 14.9427 3.304 15.1573 3.304 15.372C3.304 15.54 3.38333 15.7033 3.542 15.862C3.70067 16.0207 3.94333 16.1513 4.27 16.254C4.59667 16.3567 5.012 16.408 5.516 16.408C5.74933 16.408 5.978 16.3987 6.202 16.38C6.43533 16.3613 6.65467 16.3333 6.86 16.296L7.84 19.138C7.46667 19.2873 7.084 19.3947 6.692 19.46C6.3 19.5347 5.908 19.572 5.516 19.572ZM6.09 14V10.85H9.94L9.338 14H6.09ZM11.088 14V10.85C11.1627 10.85 11.228 10.9947 11.284 11.284C11.34 11.564 11.368 11.9373 11.368 12.404C11.368 12.8893 11.34 13.2767 11.284 13.566C11.228 13.8553 11.1627 14 11.088 14ZM11.0879 14V10.85H14.6159V14H11.0879ZM14.6159 14V10.85C14.6906 10.85 14.7559 10.9947 14.8119 11.284C14.8679 11.564 14.8959 11.9373 14.8959 12.404C14.8959 12.8893 14.8679 13.2767 14.8119 13.566C14.7559 13.8553 14.6906 14 14.6159 14ZM11.0879 14C11.0132 14 10.9479 13.8553 10.8919 13.566C10.8359 13.2767 10.8079 12.8893 10.8079 12.404C10.8079 11.9373 10.8359 11.564 10.8919 11.284C10.9479 10.9947 11.0132 10.85 11.0879 10.85V14ZM14.6152 14V10.85H18.1432V14H14.6152ZM18.1432 14V10.85C18.2179 10.85 18.2832 10.9947 18.3392 11.284C18.3952 11.564 18.4232 11.9373 18.4232 12.404C18.4232 12.8893 18.3952 13.2767 18.3392 13.566C18.2832 13.8553 18.2179 14 18.1432 14ZM14.6152 14C14.5406 14 14.4752 13.8553 14.4192 13.566C14.3632 13.2767 14.3352 12.8893 14.3352 12.404C14.3352 11.9373 14.3632 11.564 14.4192 11.284C14.4752 10.9947 14.5406 10.85 14.6152 10.85V14ZM18.1426 14V10.85H21.6706V14H18.1426ZM21.6706 14V10.85C21.7452 10.85 21.8106 10.9947 21.8666 11.284C21.9226 11.564 21.9506 11.9373 21.9506 12.404C21.9506 12.8893 21.9226 13.2767 21.8666 13.566C21.8106 13.8553 21.7452 14 21.6706 14ZM18.1426 14C18.0679 14 18.0026 13.8553 17.9466 13.566C17.8906 13.2767 17.8626 12.8893 17.8626 12.404C17.8626 11.9373 17.8906 11.564 17.9466 11.284C18.0026 10.9947 18.0679 10.85 18.1426 10.85V14ZM21.6699 14V10.85H25.1979V14H21.6699ZM25.1979 14V10.85C25.2726 10.85 25.3379 10.9947 25.3939 11.284C25.4499 11.564 25.4779 11.9373 25.4779 12.404C25.4779 12.8893 25.4499 13.2767 25.3939 13.566C25.3379 13.8553 25.2726 14 25.1979 14ZM21.6699 14C21.5953 14 21.5299 13.8553 21.4739 13.566C21.4179 13.2767 21.3899 12.8893 21.3899 12.404C21.3899 11.9373 21.4179 11.564 21.4739 11.284C21.5299 10.9947 21.5953 10.85 21.6699 10.85V14ZM25.1973 14V10.85H28.7253V14H25.1973ZM28.7253 14V10.85C28.7999 10.85 28.8653 10.9947 28.9213 11.284C28.9773 11.564 29.0053 11.9373 29.0053 12.404C29.0053 12.8893 28.9773 13.2767 28.9213 13.566C28.8653 13.8553 28.7999 14 28.7253 14ZM25.1973 14C25.1226 14 25.0573 13.8553 25.0013 13.566C24.9453 13.2767 24.9173 12.8893 24.9173 12.404C24.9173 11.9373 24.9453 11.564 25.0013 11.284C25.0573 10.9947 25.1226 10.85 25.1973 10.85V14ZM28.7246 14V10.85H32.2526V14H28.7246ZM32.2526 14V10.85C32.3273 10.85 32.3926 10.9947 32.4486 11.284C32.5046 11.564 32.5326 11.9373 32.5326 12.404C32.5326 12.8893 32.5046 13.2767 32.4486 13.566C32.3926 13.8553 32.3273 14 32.2526 14ZM28.7246 14C28.6499 14 28.5846 13.8553 28.5286 13.566C28.4726 13.2767 28.4446 12.8893 28.4446 12.404C28.4446 11.9373 28.4726 11.564 28.5286 11.284C28.5846 10.9947 28.6499 10.85 28.7246 10.85V14ZM32.252 14V10.85H35.78V14H32.252ZM35.78 14V10.85C35.8546 10.85 35.92 10.9947 35.976 11.284C36.032 11.564 36.06 11.9373 36.06 12.404C36.06 12.8893 36.032 13.2767 35.976 13.566C35.92 13.8553 35.8546 14 35.78 14ZM32.252 14C32.1773 14 32.112 13.8553 32.056 13.566C32 13.2767 31.972 12.8893 31.972 12.404C31.972 11.9373 32 11.564 32.056 11.284C32.112 10.9947 32.1773 10.85 32.252 10.85V14ZM35.7793 14V10.85H39.3073V14H35.7793ZM39.3073 14V10.85C39.382 10.85 39.4473 10.9947 39.5033 11.284C39.5593 11.564 39.5873 11.9373 39.5873 12.404C39.5873 12.8893 39.5593 13.2767 39.5033 13.566C39.4473 13.8553 39.382 14 39.3073 14ZM35.7793 14C35.7046 14 35.6393 13.8553 35.5833 13.566C35.5273 13.2767 35.4993 12.8893 35.4993 12.404C35.4993 11.9373 35.5273 11.564 35.5833 11.284C35.6393 10.9947 35.7046 10.85 35.7793 10.85V14ZM39.3066 14V10.85H42.8346V14H39.3066ZM42.8346 14V10.85C42.9093 10.85 42.9746 10.9947 43.0306 11.284C43.0866 11.564 43.1146 11.9373 43.1146 12.404C43.1146 12.8893 43.0866 13.2767 43.0306 13.566C42.9746 13.8553 42.9093 14 42.8346 14ZM39.3066 14C39.232 14 39.1666 13.8553 39.1106 13.566C39.0546 13.2767 39.0266 12.8893 39.0266 12.404C39.0266 11.9373 39.0546 11.564 39.1106 11.284C39.1666 10.9947 39.232 10.85 39.3066 10.85V14ZM42.834 14V10.85H46.362V14H42.834ZM46.362 14V10.85C46.4367 10.85 46.502 10.9947 46.558 11.284C46.614 11.564 46.642 11.9373 46.642 12.404C46.642 12.8893 46.614 13.2767 46.558 13.566C46.502 13.8553 46.4367 14 46.362 14ZM42.834 14C42.7593 14 42.694 13.8553 42.638 13.566C42.582 13.2767 42.554 12.8893 42.554 12.404C42.554 11.9373 42.582 11.564 42.638 11.284C42.694 10.9947 42.7593 10.85 42.834 10.85V14ZM46.3613 14V10.85H49.8893V14H46.3613ZM49.8893 14V10.85C49.964 10.85 50.0293 10.9947 50.0853 11.284C50.1413 11.564 50.1693 11.9373 50.1693 12.404C50.1693 12.8893 50.1413 13.2767 50.0853 13.566C50.0293 13.8553 49.964 14 49.8893 14ZM46.3613 14C46.2867 14 46.2213 13.8553 46.1653 13.566C46.1093 13.2767 46.0813 12.8893 46.0813 12.404C46.0813 11.9373 46.1093 11.564 46.1653 11.284C46.2213 10.9947 46.2867 10.85 46.3613 10.85V14ZM52.1147 6.482H54.8167V14H49.8887V10.85H52.1147V6.482ZM49.8887 14C49.814 14 49.7487 13.8553 49.6927 13.566C49.6367 13.2767 49.6087 12.8893 49.6087 12.404C49.6087 11.9373 49.6367 11.564 49.6927 11.284C49.7487 10.9947 49.814 10.85 49.8887 10.85V14ZM53.8227 17.36C53.496 17.36 53.2253 17.2573 53.0107 17.052C52.8053 16.8467 52.7027 16.5807 52.7027 16.254C52.7027 15.9273 52.8053 15.6567 53.0107 15.442C53.2253 15.2273 53.496 15.12 53.8227 15.12C54.1493 15.12 54.42 15.2273 54.6347 15.442C54.8493 15.6567 54.9567 15.9273 54.9567 16.254C54.9567 16.5807 54.8493 16.8467 54.6347 17.052C54.42 17.2573 54.1493 17.36 53.8227 17.36ZM51.2747 17.36C50.948 17.36 50.6773 17.2573 50.4627 17.052C50.2573 16.8467 50.1547 16.5807 50.1547 16.254C50.1547 15.9273 50.2573 15.6567 50.4627 15.442C50.6773 15.2273 50.948 15.12 51.2747 15.12C51.6013 15.12 51.872 15.2273 52.0867 15.442C52.3013 15.6567 52.4087 15.9273 52.4087 16.254C52.4087 16.5807 52.3013 16.8467 52.0867 17.052C51.872 17.2573 51.6013 17.36 51.2747 17.36ZM56.6382 14V1.386H59.3402V14H56.6382ZM60.1699 15.148C60.6646 15.12 61.0426 15.0593 61.3039 14.966C61.5746 14.8727 61.7613 14.7467 61.8639 14.588C61.9666 14.4293 62.0179 14.238 62.0179 14.014V6.482H64.7199V14.014C64.7199 14.8073 64.5519 15.5027 64.2159 16.1C63.8893 16.6973 63.4226 17.1687 62.8159 17.514C62.2186 17.8687 61.5046 18.074 60.6739 18.13L60.1699 15.148Z" fill="#FDA867"/>
<path d="M39.8905 18.2198C36.8527 18.2204 32.6042 18.2204 29.2718 18.2204C28.6436 18.2204 28.1345 18.7297 28.1345 19.3579C28.1345 20.6179 26.7022 21.3429 25.6868 20.597L17.0762 14.2716C15.8793 13.3924 15.8795 11.6044 17.0765 10.7254L25.6884 4.40127C26.7033 3.65602 28.1345 4.3807 28.1345 5.6398C28.1345 6.2677 28.6427 6.7764 29.2702 6.7764H29.292H29.3138H29.3356H29.3575H29.3794H29.4013H29.4232H29.4451H29.4671H29.489H29.511H29.533H29.5551H29.5771H29.5992H29.6213H29.6435H29.6656H29.6878H29.7099H29.7321H29.7544H29.7766H29.7989H29.8212H29.8435H29.8658H29.8881H29.9105H29.9329H29.9553H29.9777H30.0001H30.0226H30.0451H30.0676H30.0901H30.1126H30.1352H30.1577H30.1803H30.2029H30.2256H30.2482H30.2709H30.2935H30.3162H30.3389H30.3617H30.3844H30.4072H30.43H30.4528H30.4756H30.4984H30.5213H30.5441H30.567H30.5899H30.6128H30.6358H30.6587H30.6817H30.7047H30.7277H30.7507H30.7737H30.7967H30.8198H30.8429H30.866H30.8891H30.9122H30.9353H30.9585H30.9816H31.0048H31.028H31.0512H31.0745H31.0977H31.1209H31.1442H31.1675H31.1908H31.2141H31.2374H31.2607H31.2841H31.3075H31.3308H31.3542H31.3776H31.401H31.4245H31.4479H31.4713H31.4948H31.5183H31.5418H31.5653H31.5888H31.6123H31.6359H31.6594H31.683H31.7066H31.7301H31.7537H31.7773H31.801H31.8246H31.8482H31.8719H31.8956H31.9192H31.9429H31.9666H31.9903H32.014H32.0378H32.0615H32.0852H32.109H32.1328H32.1566H32.1803H32.2041H32.2279H32.2518H32.2756H32.2994H32.3233H32.3471H32.371H32.3949H32.4187H32.4426H32.4665H32.4904H32.5143H32.5383H32.5622H32.5861H32.6101H32.634H32.658H32.682H32.7059H32.7299H32.7539H32.7779H32.8019H32.8259H32.8499H32.874H32.898H32.922H32.9461H32.9701H32.9942H33.0183H33.0423H33.0664H33.0905H33.1146H33.1387H33.1628H33.1869H33.211H33.2351H33.2593H33.2834H33.3075H33.3317H33.3558H33.3799H33.4041H33.4283H33.4524H33.4766H33.5008H33.5249H33.5491H33.5733H33.5975H33.6217H33.6459H33.6701H33.6943H33.7185H33.7427H33.7669H33.7911H33.8153H33.8395H33.8638H33.888H33.9122H33.9364H33.9607H33.9849H34.0091H34.0334H34.0576H34.0819H34.1061H34.1304H34.1546H34.1789H34.2031H34.2274H34.2516H34.2759H34.3001H34.3244H34.3486H34.3729H34.3972H34.4214H34.4457H34.4699H34.4942H34.5185H34.5427H34.567H34.5912H34.6155H34.6398H34.664H34.6883H34.7125H34.7368H34.7611H34.7853H34.8096H34.8338H34.8581H34.8823H34.9066H34.9308H34.9551H34.9793H35.0035H35.0278H35.052H35.0763H35.1005H35.1247H35.149H35.1732H35.1974H35.2216H35.2458H35.2701H35.2943H35.3185H35.3427H35.3669H35.3911H35.4153H35.4395H35.4637H35.4878H35.512H35.5362H35.5604H35.5845H35.6087H35.6329H35.657H35.6812H35.7053H35.7295H35.7536H35.7777H35.8018H35.826H35.8501H35.8742H35.8983H35.9224H35.9465H35.9706H35.9946H36.0187H36.0428H36.0668H36.0909H36.115H36.139H36.163H36.1871H36.2111H36.2351H36.2591H36.2831H36.3071H36.3311H36.3551H36.379H36.403H36.427H36.4509H36.4749H36.4988H36.5227H36.5466H36.5705H36.5944H36.6183H36.6422H36.6661H36.69H36.7138H36.7377H36.7615H36.7853H36.8091H36.833H36.8568H36.8805H36.9043H36.9281H36.9519H36.9756H36.9994H37.0231H37.0468H37.0705H37.0942H37.1179H37.1416H37.1653H37.1889H37.2126H37.2362H37.2598H37.2834H37.307H37.3306H37.3542H37.3778H37.4013H37.4249H37.4484H37.4719H37.4954H37.5189H37.5424H37.5659H37.5893H37.6128H37.6362H37.6596H37.683H37.7064H37.7298H37.7532H37.7765H37.7999H37.8232H37.8465H37.8698H37.8931H37.9164H37.9396H37.9629H37.9861H38.0093H38.0325H38.0557H38.0789H38.102H38.1252H38.1483H38.1714H38.1945H38.2176H38.2406H38.2637H38.2867H38.3097H38.3327H38.3557H38.3787H38.4016H38.4246H38.4475H38.4704H38.4933H38.5162H38.539H38.5619H38.5847H38.6075H38.6303H38.6531H38.6758H38.6986H38.7213H38.744H38.7667H38.7893H38.812H38.8346H38.8572H38.8798H38.9024H38.925H38.9475H38.97H38.9925H39.015H39.0375H39.0599H39.0823H39.1047H39.1271H39.1495H39.1719H39.1942H39.2165H39.2388H39.2611H39.2833H39.3055H39.3278H39.35H39.3721H39.3943H39.4164H39.4385H39.4606H39.4827H39.5047H39.5267H39.5488H39.5707H39.5927H39.6146H39.6366H39.6585H39.6803H39.7022H39.724H39.7458H39.7676H39.7894H39.8111H39.8329H39.8546H39.8762H39.8979H39.9195H39.9411H39.9627H39.9843H40.0058H40.0273H40.0488H40.0703H40.0917H40.1132H40.1346H40.1559H40.1773H40.1986H40.2199H40.2412H40.2624H40.2837H40.3049H40.3261H40.3472H40.3683H40.3894H40.4105H40.4316H40.4526H40.4736H40.4946H40.5156H40.5365H40.5574H40.5783H40.5991H40.6199H40.6407H40.6615H40.6822H40.703H40.7237H40.7443H40.765H40.7856H40.8062H40.8267H40.8472H40.8678H40.8882H40.9087H40.9291H40.9495H40.9699H40.9902H41.0105H41.0308H41.051H41.0713H41.0915H41.1116C41.8282 6.7764 42.4146 7.36442 42.4146 8.08137C42.4146 8.79831 41.8282 9.38633 41.1116 9.38633H37.085C36.59 9.38633 36.182 9.79461 36.182 10.2913C36.182 10.788 36.59 11.1963 37.085 11.1963H42.9001C43.6167 11.1963 44.2 11.7811 44.2 12.4981C44.2 13.2143 43.6174 13.8031 42.9001 13.8031H36.8586C36.3636 13.8031 35.9556 14.2113 35.9556 14.708C35.9556 15.2047 36.3636 15.613 36.8586 15.613H39.8905C40.6063 15.613 41.1935 16.1971 41.1935 16.9148C41.1935 17.6353 40.6067 18.2198 39.8905 18.2198ZM39.8905 18.2198L39.8905 18.0198L39.8905 18.2198Z" fill="#ABC270" stroke="white" stroke-width="0.4"/>
</svg>
