<svg width="16" height="12" viewBox="0 0 16 12" fill="none" xmlns="http://www.w3.org/2000/svg">
<path d="M5.20452 4.57146C5.20452 3.83509 5.80864 3.23814 6.55387 3.23814C7.2991 3.23814 7.90323 3.83509 7.90323 4.57146C7.90323 5.30784 7.2991 5.90479 6.55387 5.90479C5.80864 5.90479 5.20452 5.30784 5.20452 4.57146Z" fill="black" fill-opacity="0.2"/>
<path fill-rule="evenodd" clip-rule="evenodd" d="M0 4.57141C0 2.41642 0 1.33893 0.677515 0.669467C1.35503 0 2.44548 0 4.62636 0H8.48167C10.6626 0 11.753 0 12.4305 0.669467C13.108 1.33893 13.108 2.41642 13.108 4.57141C13.108 6.72639 13.108 7.80388 12.4305 8.47335C11.753 9.14281 10.6626 9.14281 8.48167 9.14281H4.62636C2.44547 9.14281 1.35503 9.14281 0.677515 8.47335C0 7.80388 0 6.72639 0 4.57141ZM4.04792 4.57146C4.04792 3.20391 5.16988 2.09528 6.55387 2.09528C7.93787 2.09528 9.05982 3.20391 9.05982 4.57146C9.05982 5.93902 7.93787 7.04764 6.55387 7.04764C5.16988 7.04764 4.04792 5.93902 4.04792 4.57146ZM1.73474 6.09527C1.73474 6.41085 1.99365 6.66669 2.31304 6.66669C2.63242 6.66669 2.89133 6.41085 2.89133 6.09527L2.89133 3.04766C2.89133 2.73207 2.63242 2.47624 2.31304 2.47624C1.99365 2.47624 1.73474 2.73207 1.73474 3.04766L1.73474 6.09527ZM10.7947 6.66669C10.4753 6.66669 10.2164 6.41085 10.2164 6.09527V3.04766C10.2164 2.73207 10.4753 2.47624 10.7947 2.47624C11.1141 2.47624 11.373 2.73207 11.373 3.04766V6.09527C11.373 6.41085 11.1141 6.66669 10.7947 6.66669Z" fill="black" fill-opacity="0.2"/>
<path opacity="0.5" d="M1.65234 8.98006C1.66277 9.10083 1.6753 9.21646 1.69035 9.32706C1.78366 10.0129 1.98329 10.5903 2.4474 11.0489C2.51347 11.1142 2.58198 11.1742 2.6529 11.2293C3.1052 11.6405 3.66553 11.8229 4.32483 11.9105C4.99331 11.9993 5.84327 11.9992 6.89776 11.9992H10.8377C11.8922 11.9992 12.7421 11.9993 13.4106 11.9105C14.1047 11.8182 14.689 11.621 15.1531 11.1624C15.6173 10.7038 15.8169 10.1264 15.9102 9.44058C16.0001 8.78003 16.0001 7.94017 16 6.8982V6.81459C16.0001 5.77262 16.0001 4.93276 15.9102 4.27222C15.8169 3.58643 15.6173 3.009 15.1531 2.5504C15.0871 2.48511 15.0186 2.42512 14.9476 2.36997C14.4953 1.9588 13.935 1.77642 13.2757 1.68883C13.1711 1.67493 13.062 1.66321 12.9484 1.65332C13.1082 2.32002 13.1082 3.24012 13.1082 4.57148C13.1082 6.72646 13.1082 7.80395 12.4307 8.47342C11.7531 9.14289 10.6627 9.14289 8.4818 9.14289H4.6265C3.26516 9.14289 2.3287 9.14289 1.65234 8.98006Z" fill="black" fill-opacity="0.2"/>
</svg>
