<svg width="12" height="15" viewBox="0 0 12 15" fill="none" xmlns="http://www.w3.org/2000/svg">
<path fill-rule="evenodd" clip-rule="evenodd" d="M6 10.45C8.85118 10.45 11.1625 8.13868 11.1625 5.28751C11.1625 2.43633 8.85118 0.125 6 0.125C3.14883 0.125 0.837494 2.43633 0.837494 5.28751C0.837494 8.13868 3.14883 10.45 6 10.45ZM6 3.075C5.79051 3.075 5.65039 3.32637 5.37014 3.82911L5.29764 3.95917C5.218 4.10203 5.17818 4.17347 5.11609 4.2206C5.05401 4.26773 4.97669 4.28522 4.82204 4.32021L4.68125 4.35207C4.13704 4.4752 3.86494 4.53677 3.8002 4.74494C3.73547 4.95312 3.92097 5.17004 4.29197 5.60388L4.38795 5.71612C4.49338 5.8394 4.5461 5.90104 4.56981 5.9773C4.59352 6.05356 4.58555 6.13581 4.56962 6.30029L4.5551 6.45005C4.49901 7.02888 4.47097 7.3183 4.64045 7.44696C4.80994 7.57562 5.0647 7.45832 5.57424 7.22371L5.70607 7.16301C5.85086 7.09634 5.92326 7.06301 6 7.06301C6.07674 7.06301 6.14914 7.09634 6.29394 7.16301L6.42576 7.22371C6.9353 7.45832 7.19007 7.57562 7.35955 7.44696C7.52904 7.3183 7.50099 7.02888 7.4449 6.45005L7.43039 6.30029C7.41445 6.13582 7.40648 6.05356 7.43019 5.9773C7.45391 5.90105 7.50662 5.83941 7.61204 5.71613L7.70803 5.60388C8.07903 5.17004 8.26454 4.95312 8.1998 4.74494C8.13506 4.53677 7.86296 4.4752 7.31876 4.35207L7.17796 4.32021C7.02332 4.28522 6.946 4.26773 6.88391 4.2206C6.82183 4.17347 6.78201 4.10203 6.70237 3.95917L6.62987 3.82911C6.34962 3.32637 6.2095 3.075 6 3.075Z" fill="white"/>
<path opacity="0.5" d="M2.10228 11.426L2.57198 9.7128L3.05053 8.23779H8.95054L9.4291 9.7128L9.89879 11.426C10.3622 13.1162 10.5939 13.9614 10.2847 14.424C10.1763 14.5861 10.031 14.7163 9.8623 14.8022C9.38099 15.0472 8.63784 14.66 7.15153 13.8856C6.657 13.6279 6.40973 13.499 6.14699 13.471C6.0496 13.4606 5.95148 13.4606 5.85409 13.471C5.59135 13.499 5.34408 13.6279 4.84954 13.8856C3.36324 14.66 2.62009 15.0472 2.13878 14.8022C1.9701 14.7163 1.82473 14.5861 1.71637 14.424C1.40718 13.9614 1.63888 13.1162 2.10228 11.426Z" fill="white"/>
</svg>
