<svg width="16" height="16" viewBox="0 0 16 16" fill="none" xmlns="http://www.w3.org/2000/svg">
<path d="M5.34518 0H0V5.34518H5.34518V0ZM4.59066 4.59041H0.755037V0.754785H4.59066V4.59041Z" fill="black"/>
<path d="M3.76173 1.58398H1.58398V3.76173H3.76173V1.58398Z" fill="black"/>
<path d="M6.10352e-05 16H5.34524V10.6548H6.10352e-05V16ZM0.754843 11.4096H4.59046V15.2452H0.754843V11.4096Z" fill="black"/>
<path d="M3.76173 12.2383H1.58398V14.416H3.76173V12.2383Z" fill="black"/>
<path d="M10.6554 0V5.34518H16.0006V0H10.6554ZM15.2458 4.59041H11.4102V0.754785H15.2458V4.59041Z" fill="black"/>
<path d="M14.417 1.58398H12.2393V3.76173H14.417V1.58398Z" fill="black"/>
<path d="M15.0627 6.0187H14.3084V6.69323H13.4995V6.0187H12.7986V6.69323H12.1487V6.0187H10.5439V6.6978H9.83533V9.04519H8.32704V8.31504H9.06404V7.55239H8.43472V6.75291H9.05592V6.0187H8.40958V5.29719H9.06404V6.0187H9.7881V3.84146H9.13566V3.07983H9.7881V2.27806V1.99133V1.51286H8.41745V0.765194H9.7881V0H8.33999V0.726342H7.53823V0H6.09012V1.54106H6.803V2.25013H6.09012V3.79118H6.803V4.52819H6.09012V5.24107V5.66341V6.0187H3.76203V6.7783H3.06643V6.0187H2.30453V6.7905H1.91368H1.59292H1.56296V6.03876H0.000823975V6.92104H0.821127V7.58261H0.000823975V9.818H0.831032V9.8081H2.27457V9.14424H3.06643V9.8081H3.80825V9.14424H4.53434V9.8081H5.27591V9.09624H6.06879V9.8081H6.74916V10.54H6.06879V11.3027H6.74916H6.7517V12.0823H6.06879V14.3264H6.7517V15.1774H6.06879V16H6.7517H7.56642H8.35523V15.217H9.11941V14.3264H9.82264V15.217H10.5469V16H11.3858V15.217H12.0662V16H13.5854V15.217H14.3087V16H15.0629H15.246H16.0003V14.3548H15.0629V15.1774H14.3767V14.4158V14.3548V13.6198H15.1452V12.845H16.0006V9.76061H15.1224V9.09141H16.0006V8.27746H15.0632V9.04544H14.4067V8.25308H12.8727V6.75291H13.4708V7.58388H14.3635V6.75291H15.0629V7.55239H16.0003V6.0187H15.246H15.0627ZM12.8438 12.8554H14.3371V13.5548H12.8438V12.8554ZM12.8438 12.0219V11.3362V11.258V10.5398H13.5991V11.3359H14.3371V12.0216H12.8438V12.0219ZM11.3464 12.7929H10.5464V13.5548H9.83508V12.795V12.1225H11.3464V12.7929ZM8.28996 13.5548H7.56591H6.80986V12.1491H7.56083V12.795H9.04982V13.5548H8.28996ZM6.80986 9.09624H8.26913V9.72582H6.80986V9.09624ZM10.5073 9.8081V10.4885H9.90111V9.8081H10.5073ZM11.3853 9.8081H12.07V10.5027H11.3853V9.8081ZM12.0717 8.25308H11.4183V7.55264H10.5817V6.75316H12.0717V8.25308ZM11.2982 11.258H10.6125V10.5398H11.2982V11.258ZM9.77997 12.0823H9.1189V11.3027H9.77997V12.0823ZM9.02316 11.2841H8.37301V9.8081H9.02316V11.2841ZM8.30393 11.3027V12.0823H7.56591V11.3027H8.30393ZM11.4285 11.3362H12.0946V12.0219H11.4285V11.3362ZM14.4326 10.54V9.8081H15.0624V11.2928H14.4326V10.54ZM13.6204 9.72582V9.09141H14.38V9.72582H13.6204ZM12.1109 9.04544V8.28685H12.8171V9.04544H12.1109ZM10.5817 8.2866H11.3078V9.04519V9.72556H10.5817V9.04519V8.2866ZM6.77253 9.04544H6.11908V8.3153H6.77253V9.04544ZM7.668 1.54131H8.33974V2.25038H7.668V1.54131ZM8.35472 3.07983V3.76146H6.86548V3.07983H8.35472ZM8.40932 4.47536V3.88134H9.06379V4.47536H8.40932ZM9.1156 3.02065H8.40932V2.27831H9.1156V3.02065ZM6.86573 4.53936H8.35497V5.24131H6.86573V4.53936ZM8.35472 6.0187V6.71304H7.48718V6.0187H8.35472ZM7.46432 6.81056V7.55239H6.06828V8.29803H5.26372V9.04519H4.62424V8.66196V8.29803V7.55239H3.80774V6.81056H4.53383V7.53182H5.27541V6.81056H7.46432ZM0.830525 9.09624V7.61258H1.59242V8.32444H2.27405V9.09624H0.830525ZM2.31418 8.29828V6.81082H3.06592V8.29828H2.31418ZM8.28996 15.1774H7.56591V14.3264H8.28996V15.1774ZM10.5817 13.6155H11.3853V12.8552H12.0946V13.6089H12.726V14.3548H11.3464V15.1774H10.5817V14.3264V13.6155ZM13.5574 15.1774H12.8438V14.4158H13.5574V15.1774Z" fill="black"/>
</svg>
