<svg width="18" height="19" viewBox="0 0 18 19" fill="none" xmlns="http://www.w3.org/2000/svg">
<circle opacity="0.3" cx="9" cy="9.5" r="8.625" fill="white"/>
<path d="M5.07761 8.6377H4.57761H5.07761ZM5.07761 9.5002L4.69941 9.82725C4.78974 9.9317 4.91925 9.99415 5.05723 9.99978C5.19521 10.0054 5.32938 9.95372 5.42792 9.85697L5.07761 9.5002ZM6.90368 8.40797C7.10072 8.2145 7.10361 7.89793 6.91015 7.70089C6.71668 7.50385 6.40011 7.50095 6.20307 7.69442L6.90368 8.40797ZM4.20279 7.72414C4.02216 7.51527 3.70641 7.49237 3.49753 7.67299C3.28866 7.85362 3.26576 8.16937 3.44638 8.37825L4.20279 7.72414ZM12.0786 6.05761C12.2637 6.26252 12.5798 6.27858 12.7847 6.09348C12.9897 5.90837 13.0057 5.5922 12.8206 5.38728L12.0786 6.05761ZM9.32192 3.8252C6.69423 3.8252 4.57761 5.98737 4.57761 8.6377H5.57761C5.57761 6.52457 7.26148 4.8252 9.32192 4.8252V3.8252ZM4.57761 8.6377L4.57761 9.5002H5.57761L5.57761 8.6377H4.57761ZM5.42792 9.85697L6.90368 8.40797L6.20307 7.69442L4.72731 9.14342L5.42792 9.85697ZM5.45581 9.17314L4.20279 7.72414L3.44638 8.37825L4.69941 9.82725L5.45581 9.17314ZM12.8206 5.38728C11.9549 4.42896 10.7084 3.8252 9.32192 3.8252V4.8252C10.4111 4.8252 11.3926 5.29819 12.0786 6.05761L12.8206 5.38728Z" fill="white"/>
<path d="M12.9214 9.5L13.2265 9.10382C13.0576 8.97384 12.825 8.96512 12.6469 9.0821L12.9214 9.5ZM11.1772 10.0476C10.9464 10.1992 10.8823 10.5092 11.0339 10.74C11.1855 10.9708 11.4955 11.035 11.7263 10.8834L11.1772 10.0476ZM13.8704 10.8616C14.0892 11.0301 14.4032 10.9893 14.5716 10.7705C14.7401 10.5517 14.6993 10.2377 14.4805 10.0693L13.8704 10.8616ZM5.84494 11.6257C5.62178 11.463 5.30902 11.5121 5.14638 11.7352C4.98373 11.9584 5.03279 12.2711 5.25595 12.4338L5.84494 11.6257ZM8.66888 13.45C9.92956 13.45 11.0932 13.1054 11.9559 12.5222C12.8158 11.9408 13.4214 11.0848 13.4214 10.075H12.4214C12.4214 10.653 12.0751 11.2345 11.3959 11.6937C10.7195 12.151 9.75683 12.45 8.66888 12.45V13.45ZM13.4214 10.075V9.5H12.4214V10.075H13.4214ZM12.6469 9.0821L11.1772 10.0476L11.7263 10.8834L13.196 9.9179L12.6469 9.0821ZM12.6164 9.89618L13.8704 10.8616L14.4805 10.0693L13.2265 9.10382L12.6164 9.89618ZM5.25595 12.4338C6.13025 13.071 7.347 13.45 8.66888 13.45V12.45C7.5266 12.45 6.52394 12.1205 5.84494 11.6257L5.25595 12.4338Z" fill="white"/>
</svg>
