<svg width="16" height="15" viewBox="0 0 16 15" fill="none" xmlns="http://www.w3.org/2000/svg">
<path opacity="0.5" fill-rule="evenodd" clip-rule="evenodd" d="M1.59835 13.9017C2.6967 15 4.46447 15 8 15C11.5355 15 13.3033 15 14.4017 13.9017C15.5 12.8033 15.5 11.0355 15.5 7.5C15.5 3.96447 15.5 2.1967 14.4017 1.09835C13.3033 0 11.5355 0 8 0C4.46447 0 2.6967 0 1.59835 1.09835C0.5 2.1967 0.5 3.96447 0.5 7.5C0.5 11.0355 0.5 12.8033 1.59835 13.9017Z" fill="white"/>
<path d="M9.06702 11.5213L11.7011 4.64698C11.9123 4.0958 11.4042 3.58771 10.853 3.79891L3.97868 6.43298C3.35584 6.67163 3.33559 7.54497 3.94857 7.73124L6.5563 8.52362C6.75912 8.58525 6.91475 8.74088 6.97638 8.9437L7.76876 11.5514C7.95503 12.1644 8.82837 12.1442 9.06702 11.5213Z" fill="white"/>
</svg>
