<svg width="217" height="217" viewBox="0 0 217 217" fill="none" xmlns="http://www.w3.org/2000/svg">
<path d="M93.261 51.1768C89.2422 47.1723 85.5319 42.9755 79.6773 41.1657C67.5144 37.406 53.1065 39.6927 43.3068 48.2551C29.7295 60.1176 26.5374 80.0213 28.7265 96.1948C31.2077 114.525 38.8422 132.215 51.5771 145.922C65.5011 160.908 85.0268 170.651 105.671 175.509C116.82 178.132 128.525 179.406 140.025 177.688C151.525 175.97 162.84 171.065 170.777 162.822C181.801 151.374 185.068 134.957 183.947 119.81C183.161 109.197 180.229 98.3474 172.796 90.5701C158.944 76.0763 136.119 74.99 118.09 67.1346C110.716 63.9217 103.666 59.9666 97.4739 55.0225C95.974 53.8251 94.6004 52.5114 93.261 51.1768Z" fill="#ABC270"/>
<path opacity="0.7" d="M93.261 51.1768C89.2422 47.1723 85.5319 42.9755 79.6773 41.1657C67.5144 37.406 53.1065 39.6927 43.3068 48.2551C29.7295 60.1176 26.5374 80.0213 28.7265 96.1948C31.2077 114.525 38.8422 132.215 51.5771 145.922C65.5011 160.908 85.0268 170.651 105.671 175.509C116.82 178.132 128.525 179.406 140.025 177.688C151.525 175.97 162.84 171.065 170.777 162.822C181.801 151.374 185.068 134.957 183.947 119.81C183.161 109.197 180.229 98.3474 172.796 90.5701C158.944 76.0763 136.119 74.99 118.09 67.1346C110.716 63.9217 103.666 59.9666 97.4739 55.0225C95.974 53.8251 94.6004 52.5114 93.261 51.1768Z" fill="white"/>
<path d="M169.482 74.7782L170.661 72.2436C170.661 72.2436 170.654 72.1698 170.643 72.0427L170.644 72.0422C170.644 72.0422 170.503 67.7821 170.315 66.4619C170.175 65.4736 169.75 65.3356 169.544 65.3287C169.298 65.1178 168.978 64.9181 168.569 64.7406C167.675 64.2038 166.55 63.5905 165.586 63.1843C164.563 62.6522 163.699 62.348 163.333 62.9282C163.147 63.2238 163.021 63.4751 162.931 63.6895C162.899 63.7619 162.872 63.8349 162.846 63.9073C162.841 63.9225 162.836 63.9364 162.832 63.9507C162.75 64.1925 162.7 64.4229 162.669 64.6017L161.192 65.675L160.752 65.9007L161.629 70.4338L164.19 73.4219C164.19 73.4219 164.175 73.5404 164.141 73.7322C164.016 74.3659 163.586 75.8966 162.205 77.5788C161.806 77.9511 161.464 78.3279 161.185 78.6646C161.072 78.7718 160.961 78.879 160.839 78.9858C158.986 80.6033 158.278 81.8446 157.966 82.7816L157.961 82.8436C156.722 81.5829 155.266 80.5261 153.863 79.438C153.548 79.1941 150.66 76.6678 148.604 74.7113L147.027 72.1316C147.536 73.063 146.621 71.3448 146.541 71.1664C145.619 69.1201 145.216 66.8577 144.17 64.8713C142.581 61.8528 138.88 59.5278 135.261 59.0548L137.02 55.1536L135.317 54.4743C135.368 54.5117 135.422 54.5447 135.483 54.5672C135.863 54.7078 136.605 54.9739 137.504 55.2621C143.496 57.5527 145.168 56.1526 145.313 56.015C145.759 55.7577 146.025 55.2595 145.988 54.733L145.471 47.1753C145.458 46.9874 145.523 46.8025 145.65 46.6636L146.965 45.2288C147.184 44.9897 147.206 44.6299 147.018 44.3656L145.242 41.8684C145.144 41.7317 145.1 41.5637 145.118 41.3966L145.319 39.5204C145.333 39.3863 145.308 39.2509 145.245 39.1311L142.81 34.4309C143.344 34.1267 143.766 33.7843 144.009 33.3915C145.342 31.2458 145.301 29.8835 144.38 29.3744C143.46 28.8653 141.663 31.9593 137.176 30.9975C134.932 30.5167 130.205 34.9404 128.471 38.4411L130.313 34.1918C128.45 36.6478 127.415 37.399 127.8 38.5548C127.76 38.5795 127.694 38.6234 127.605 38.688C126.003 39.9588 125.873 41.2343 125.873 41.2343C125.42 42.7537 126.041 45.0279 128.602 47.9973L124.058 54.0842C123.73 53.8663 123.354 53.7053 122.912 53.6337C121.05 53.3325 118.337 54.2921 117.511 54.6089C117.042 54.4878 116.591 54.3819 116.16 54.2899C114.875 53.8199 113.524 53.6376 112.254 53.6142C110.93 53.4944 109.488 53.5109 108.113 53.8233C108.113 53.8233 107.216 54.043 105.829 54.6644C105.197 54.8979 104.544 55.2338 103.89 55.6362C103.212 56.0068 102.607 56.4039 102.051 56.8227C100.509 57.9055 98.8418 59.3469 97.265 61.2487C96.7833 61.8298 96.3115 62.3962 95.8437 62.9491C95.3238 63.4955 94.8086 64.0462 94.2943 64.5983C92.1707 66.7192 89.2786 69.4278 86.8881 71.1712C84.6812 72.547 82.0876 73.7539 78.8422 74.7934C76.8874 75.4196 74.8455 75.9599 72.8035 76.4434C70.6309 76.913 68.4227 77.3275 66.2115 77.7641C65.0818 77.9568 63.9347 78.1994 62.818 78.4659C61.6059 78.731 60.3989 79.0171 59.2019 79.3352C57.5067 79.7392 56.0737 80.1541 55.0216 80.6159C54.6306 80.7552 54.2409 80.8997 53.8538 81.0503C54.1246 81.1046 54.3893 81.1723 54.6501 81.2469C55.4934 81.6002 57.2737 82.4565 58.7662 83.9074C60.3481 85.7757 61.0182 88.0755 61.1476 89.6674C61.1107 91.5349 60.4909 93.6654 60.0118 95.7469C59.3434 97.9742 58.8022 99.9124 59.6746 101.61C59.8581 102.119 60.1641 102.587 60.5456 103.032C61.0312 103.646 61.6462 104.16 62.3081 104.642C63.5224 105.588 64.906 106.514 65.991 107.619C66.6528 108.568 67.3794 110.061 68.0408 111.546C68.299 112.35 68.6093 113.238 69.1418 114.254C69.3298 114.691 69.5307 115.121 69.7581 115.536C69.8436 115.724 69.9829 115.957 70.1656 116.219C71.5024 118.339 73.3755 119.949 75.5533 121.114C79.0405 123.235 82.095 123.243 82.095 123.243L82.0963 123.239C81.8268 124.67 81.7613 125.603 81.7613 125.603C81.7613 125.603 80.0404 125.999 77.2303 127.29C74.4761 128.44 71.0862 130.097 68.9283 132.012C67.145 133.595 65.7601 135.405 64.6443 137.318C63.1188 139.867 62.1349 142.533 61.5442 144.498C61.2153 145.494 60.9154 146.477 60.6281 147.432L60.6012 147.373C60.5873 147.484 60.5621 147.599 60.5439 147.711C60.1867 148.898 59.846 150.036 59.4905 151.096C58.0727 154.365 55.733 157.598 54.5855 159.318C54.585 159.319 54.5842 159.32 54.5837 159.321C53.9853 160.087 53.3625 160.838 52.7201 161.582C51.3318 163.114 49.5736 164.913 48.2217 166.494C47.7773 166.986 47.3668 167.483 47.0326 167.987C46.7027 168.446 46.4449 168.864 46.2922 169.22C45.2653 171.614 47.5317 173.283 49.1331 175.329C49.1501 175.35 49.1627 175.372 49.1787 175.394C49.6548 176.335 49.9543 177.383 50.1405 178.785C50.1652 179.815 50.1248 180.875 50.4317 181.957C50.6456 182.712 51.153 183.446 51.7936 184.118C52.5192 184.953 53.4731 185.698 54.5638 186.272C55.1766 186.638 55.7477 186.924 56.1843 187.098C57.8071 187.744 63.1644 187.706 64.3622 185.625C64.4403 185.489 64.5067 185.358 64.5644 185.229C64.722 184.962 64.8023 184.684 64.8188 184.399C65.0427 183.062 64.012 182.222 64.012 182.222C63.979 182.269 64.1587 182.381 64.1235 182.427C62.2252 179.59 57.1244 176.298 57.1682 173.411C57.252 167.924 60.5734 164.13 64.3696 160.575C68.0577 157.121 72.5657 156.521 75.996 152.869C78.2098 150.512 80.6303 148.087 82.1336 143.174C91.0671 140.446 93.2892 133.095 93.2892 133.095C94.2101 132.722 94.9674 132.36 95.8155 131.982C98.2654 135.684 100.017 138.126 100.275 137.964L119.959 124.722C120.388 125.238 124.291 129.845 128.063 131.074C128.1 131.086 128.134 131.097 128.171 131.11L132.124 133.094C131.448 135.499 128.114 136.189 128.114 136.189L128.105 136.23C128.006 136.25 127.906 136.271 127.806 136.29C127.103 136.261 123.174 136.278 119.781 139.966C118.173 141.528 116.049 144.36 114.471 146.57C113.149 148.386 112.275 149.7 112.275 149.7C112.275 149.7 111.506 149.87 110.543 150.239C106.882 151.563 106.568 153.126 106.775 154.03C106.78 154.172 106.793 154.317 106.823 154.467C106.921 154.952 107.231 155.373 107.644 155.797C108.023 156.265 108.481 156.644 108.922 156.985C109.529 157.552 110.153 158.21 110.633 159.064C111.044 160.036 111.345 161.286 111.672 162.683C112.231 165.074 115.043 170.391 118.953 170.621C120.241 170.697 121.133 170.591 121.753 170.414C122.395 170.293 123.025 170.075 123.088 169.541C123.13 169.46 123.14 169.408 123.14 169.408C123.14 169.408 123.117 169.367 123.075 169.296C123.056 169.181 123.02 169.058 122.954 168.919C122.471 167.899 121.791 166.992 121.175 166.043C120.39 164.685 119.425 162.086 118.949 159.476C118.929 159.331 118.909 159.186 118.892 159.041C118.814 158.373 118.711 157.638 118.663 156.895C118.661 156.819 118.656 156.74 118.655 156.664C118.642 155.285 118.864 154.221 119.289 153.402C120.031 152.205 121.395 151.557 122.733 151.233C123.676 151.006 124.85 150.689 126.148 150.304C127.714 149.9 129.391 149.399 130.864 148.762C136.108 146.88 141.544 144.32 142.514 141.829C144.057 137.867 147.086 133.58 147.086 133.58C145.569 123.679 138.028 112.647 138.028 112.647L158.383 98.8739C158.565 98.7597 157.835 97.3266 156.529 95.0716L156.885 95.6349L156.885 95.6432C156.891 95.6453 156.898 95.6479 156.904 95.6501C158.238 96.4105 160.676 96.7551 162.102 96.8978C162.207 96.9091 162.314 96.9182 162.421 96.9282C162.911 96.9721 163.094 96.9573 163.094 96.9573C164.648 95.5824 166.032 92.9897 166.962 90.4312C168.028 87.9028 169.005 84.7202 169.405 81.0165C169.59 79.81 169.709 78.2389 169.574 76.3935C169.554 75.8623 169.527 75.325 169.482 74.7782ZM128.084 48.8675C128.253 48.6006 128.408 48.3497 128.548 48.1206C128.552 48.1249 128.556 48.1293 128.559 48.1336L128.607 48.0247C129.07 47.2608 129.346 46.7583 129.346 46.7583L129.17 46.7201L129.227 46.5881C129.299 46.6966 129.346 46.7583 129.346 46.7583C129.196 47.2005 128.707 47.9787 128.084 48.8675Z" fill="white"/>
<path d="M160.245 79.8459C160.245 79.8459 161.851 85.1711 168.668 83.6846C168.668 83.6846 170.071 80.1879 169.332 74.9239L170.577 72.2444C170.577 72.2444 170.207 68.0463 170.265 67.4205C170.323 66.7951 170.343 65.494 168.379 64.6932C166.415 63.8921 163.941 61.8306 163.249 62.9286C162.558 64.0266 162.647 64.5578 162.647 64.5578L160.892 65.8325L161.546 70.4342L164.107 73.4223C164.107 73.4223 163.771 76.1409 162.404 77.3248C161.036 78.5088 160.245 79.8459 160.245 79.8459Z" fill="#FDA867"/>
<path opacity="0.2" d="M167.075 84.0062C167.075 84.0062 168.71 76.9272 167.643 72.7651C167.643 72.7651 170.031 70.5509 169.347 65.3398C169.347 65.3398 170.044 65.1423 170.232 66.4626C170.42 67.7828 170.56 72.0429 170.56 72.0429L169.395 74.7277C169.395 74.7277 169.307 80.8462 168.924 83.2675C168.924 83.2675 168.835 83.803 167.075 84.0062Z" fill="black" fill-opacity="0.52"/>
<path d="M134.894 60.2874L156.867 92.3968C156.867 92.3968 158.162 93.7314 161.33 94.3273C161.33 94.3273 166.011 89.1392 167.076 84.0055L168.794 83.6565C168.794 83.6565 166.784 93.7626 163.136 96.9894C163.136 96.9894 158.759 96.7694 156.804 95.644L134.701 60.6697L134.894 60.2874Z" fill="#FDA867"/>
<path opacity="0.6" d="M134.894 60.2874L156.867 92.3968C156.867 92.3968 158.162 93.7314 161.33 94.3273C161.33 94.3273 166.011 89.1392 167.076 84.0055L168.794 83.6565C168.794 83.6565 166.784 93.7626 163.136 96.9894C163.136 96.9894 158.759 96.7694 156.804 95.644L134.701 60.6697L134.894 60.2874Z" fill="white"/>
<path d="M135.291 59.1663C138.975 59.3911 142.366 61.6049 144.086 64.8716C145.131 66.8576 145.535 69.1205 146.457 71.1668C147.985 74.5585 150.839 77.1586 153.778 79.4384C155.626 80.8719 157.568 82.2481 158.982 84.1108C159.689 85.0422 160.249 86.1302 160.54 87.263" stroke="#263238" stroke-opacity="0.73" stroke-miterlimit="10" stroke-linecap="round" stroke-linejoin="round"/>
<path d="M157.882 82.782C158.193 81.845 158.902 80.6038 160.755 78.9863C163.859 76.2772 164.106 73.4224 164.106 73.4224L161.545 70.4343L160.668 65.9011L162.541 64.9394C162.541 64.9394 162.65 63.2985 163.584 62.7967C164.518 62.2955 168.92 64.9108 169.887 65.6594C170.514 66.1459 170.14 68.5147 170.559 72.0423C169.884 73.5656 169.394 74.727 169.394 74.727C170.518 88.1176 163.134 96.989 163.134 96.989C160.426 96.8527 158.366 96.2161 156.797 95.6445" stroke="#263238" stroke-opacity="0.73" stroke-miterlimit="10" stroke-linecap="round" stroke-linejoin="round"/>
<path d="M163.029 66.4878C163.48 66.8931 163.93 67.2989 164.381 67.7043C164.58 67.8835 164.781 68.0636 165.012 68.1986C165.412 68.4312 165.707 68.6604 166.169 68.6743C166.497 68.6843 166.901 68.6435 167.202 68.5146C167.504 68.3852 168.162 67.2325 168.248 66.9162" stroke="#263238" stroke-opacity="0.73" stroke-miterlimit="10" stroke-linecap="round" stroke-linejoin="round"/>
<path d="M160.182 79.5481C160.182 79.5481 161.575 85.5065 168.944 83.5574" stroke="#263238" stroke-opacity="0.73" stroke-miterlimit="10" stroke-linecap="round" stroke-linejoin="round"/>
<path d="M165.719 63.3335C164.891 63.6759 164.468 64.1659 164.123 64.9931C163.778 65.8203 163.73 66.5711 164.069 67.4005" stroke="#263238" stroke-opacity="0.73" stroke-miterlimit="10" stroke-linecap="round" stroke-linejoin="round"/>
<path d="M167.777 64.334C166.902 64.554 166.013 65.3673 165.693 66.211C165.372 67.0547 165.324 67.5616 165.507 68.4453" stroke="#263238" stroke-opacity="0.73" stroke-miterlimit="10" stroke-linecap="round" stroke-linejoin="round"/>
<path d="M165.213 68.3357C165.678 68.6217 166.15 68.9133 166.514 69.32C167.31 70.2084 167.464 71.4818 167.581 72.6688" stroke="#263238" stroke-opacity="0.73" stroke-miterlimit="10" stroke-linecap="round" stroke-linejoin="round"/>
<path d="M162.541 64.9396C162.541 64.9396 163.953 64.0525 164.189 64.5417" stroke="#263238" stroke-opacity="0.73" stroke-miterlimit="10" stroke-linecap="round" stroke-linejoin="round"/>
<path d="M70.2246 156.807C70.2246 156.807 61.9248 154.659 60.7105 147.488C60.7105 147.488 59.1468 152.666 55.9039 157.334C52.6611 162.001 46.2361 167.353 46.2075 169.223C46.1788 171.093 46.5681 172.237 48.2521 173.808C49.936 175.379 50.117 179.53 50.1834 180.507C50.2498 181.484 50.8643 183.852 53.2778 185.596C55.6913 187.341 59.5842 188.051 62.4482 186.874C65.3126 185.698 65.1021 183.499 64.1425 182.427C63.183 181.355 57.4082 176.063 57.1912 174.27C56.9746 172.478 57.5991 168.827 59.5139 165.929C61.4283 163.029 66.1433 158.59 70.2246 156.807Z" fill="#FDA867"/>
<path d="M137.008 55.2346C137.008 55.2346 135.233 58.1381 134.701 60.67" stroke="#263238" stroke-opacity="0.73" stroke-miterlimit="10" stroke-linecap="round" stroke-linejoin="round"/>
<path d="M138.689 35.6814C139.314 37.4651 139.815 39.432 139.198 41.2188C138.821 42.3129 138.052 43.2378 137.661 44.3271C137.234 45.5154 137.282 46.8139 137.336 48.0756C137.408 49.7747 137.524 51.5975 138.575 52.9351C140.11 54.8885 142.951 55.04 145.24 56.0043C145.24 56.0043 143.704 57.6743 137.385 55.2496L135.194 54.461L134.046 59.7246C134.046 59.7246 133.369 58.5866 132.297 58.7589C131.224 58.9312 128.424 61.0283 128.424 61.0283C128.424 61.0283 126.812 59.4303 126.451 58.3553C126.09 57.2798 125.106 54.6997 123.959 54.1086C123.959 54.1086 128.729 48.3273 129.264 46.7592C129.264 46.7592 126.556 43.1909 129.661 41.7908C132.765 40.3907 134.474 43.9409 134.474 43.9409L133.411 39.3309L137.556 35.8068L138.689 35.6814Z" fill="#FDA867"/>
<path opacity="0.6" d="M138.689 35.6814C139.314 37.4651 139.815 39.432 139.198 41.2188C138.821 42.3129 138.052 43.2378 137.661 44.3271C137.234 45.5154 137.282 46.8139 137.336 48.0756C137.408 49.7747 137.524 51.5975 138.575 52.9351C140.11 54.8885 142.951 55.04 145.24 56.0043C145.24 56.0043 143.704 57.6743 137.385 55.2496L135.194 54.461L134.046 59.7246C134.046 59.7246 133.369 58.5866 132.297 58.7589C131.224 58.9312 128.424 61.0283 128.424 61.0283C128.424 61.0283 126.812 59.4303 126.451 58.3553C126.09 57.2798 125.106 54.6997 123.959 54.1086C123.959 54.1086 128.729 48.3273 129.264 46.7592C129.264 46.7592 126.556 43.1909 129.661 41.7908C132.765 40.3907 134.474 43.9409 134.474 43.9409L133.411 39.3309L137.556 35.8068L138.689 35.6814Z" fill="white"/>
<path d="M142.608 34.2048L145.161 39.132C145.223 39.2518 145.249 39.3872 145.235 39.5213L145.034 41.3975C145.016 41.5646 145.06 41.7321 145.157 41.8693L146.934 44.3665C147.122 44.6308 147.099 44.9906 146.88 45.2297L145.566 46.6645C145.439 46.8034 145.374 46.9883 145.387 47.1758L145.905 54.7339C145.945 55.3302 145.6 55.8918 145.043 56.1058C144.618 56.269 143.998 56.4031 143.094 56.4339C140.826 56.5107 136.529 54.9856 135.399 54.5677C135.222 54.5021 135.08 54.3659 135.006 54.1914L133.124 49.7507" stroke="#263238" stroke-opacity="0.73" stroke-miterlimit="10" stroke-linecap="round" stroke-linejoin="round"/>
<path d="M132.919 44.0672C132.919 44.0672 131.621 41.1516 130.501 41.4836C129.381 41.8156 128.053 42.7791 128.082 44.1111C128.111 45.443 130.154 47.7475 131.019 47.9541C131.885 48.1607 132.935 47.8057 132.935 47.8057" stroke="#263238" stroke-opacity="0.73" stroke-miterlimit="10" stroke-linecap="round" stroke-linejoin="round"/>
<path d="M143.3 41.9474C143.293 42.3792 143.119 42.7269 142.911 42.7238C142.703 42.7208 142.54 42.3679 142.547 41.9361C142.553 41.5043 142.727 41.1566 142.935 41.1597C143.143 41.1627 143.306 41.5156 143.3 41.9474Z" fill="#263238" fill-opacity="0.73"/>
<path d="M141.734 47.1077C141.734 47.1077 141.673 48.6254 143.337 49.0685" stroke="#263238" stroke-opacity="0.73" stroke-miterlimit="10" stroke-linecap="round" stroke-linejoin="round"/>
<path d="M143.405 39.2149C143.405 39.2149 141.461 37.528 140.328 40.6354" stroke="#263238" stroke-opacity="0.73" stroke-width="2" stroke-miterlimit="10" stroke-linecap="round" stroke-linejoin="round"/>
<path d="M128.922 46.6858L129.263 46.7596C129.263 46.7596 126.619 51.5631 123.958 54.1089" stroke="#263238" stroke-opacity="0.73" stroke-miterlimit="10" stroke-linecap="round" stroke-linejoin="round"/>
<path d="M129.888 47.3022C129.888 47.3022 128.805 55.5899 130.318 59.4121" stroke="#263238" stroke-opacity="0.73" stroke-miterlimit="10" stroke-linecap="round" stroke-linejoin="round"/>
<path d="M127.966 39.1863C127.966 39.1863 126.178 35.6809 128.683 32.3777" stroke="#263238" stroke-opacity="0.73" stroke-miterlimit="10" stroke-linecap="round" stroke-linejoin="round"/>
<path d="M128.657 38.583C125.25 38.3946 124.233 42.4712 124.233 42.4712" stroke="#263238" stroke-opacity="0.73" stroke-miterlimit="10" stroke-linecap="round" stroke-linejoin="round"/>
<path d="M144.296 29.3754C143.376 28.8663 141.579 31.9603 137.092 30.9985C134.232 30.3857 127.356 32.2736 127.756 38.5306C127.756 38.5306 122.512 41.5452 128.477 48.1346L129.247 46.3517C129.247 46.3517 126.757 43.6865 128.908 42.3376C130.807 41.1472 131.05 41.2917 132.863 44.1661C132.863 44.1661 133.469 45.4256 134.65 45.0723C135.832 44.719 135.777 44.2229 135.3 43.0399C135.124 42.6033 134.827 41.8689 134.583 41.0591C135.66 40.7518 138.245 39.6425 138.213 36.0742C138.213 36.0616 138.212 36.0512 138.212 36.0386C140.498 35.4041 143.138 34.6611 143.926 33.3925C145.258 31.2468 145.217 29.8844 144.296 29.3754Z" fill="#263238" fill-opacity="0.73"/>
<path d="M128.978 38.3649C128.648 36.418 129.986 34.4841 131.72 33.5388C133.454 32.5936 135.5 32.4378 137.474 32.4026C138.733 32.3805 140.007 32.3978 141.23 32.1005C141.659 31.9964 142.083 31.8484 142.482 31.6531" stroke="white" stroke-width="0.5" stroke-miterlimit="10" stroke-linecap="round" stroke-linejoin="round"/>
<path d="M129.95 39.4151C130.178 37.9057 131.449 36.6128 132.955 36.3585C133.741 36.2257 134.556 36.352 135.338 36.1918C136.119 36.0317 136.918 35.428 136.881 34.6316" stroke="white" stroke-width="0.5" stroke-miterlimit="10" stroke-linecap="round" stroke-linejoin="round"/>
<path d="M110.206 73.8655L130.984 59.0704C131.999 58.3499 133.414 58.6516 134.046 59.724C134.046 59.724 159.273 98.2636 158.296 98.8756L100.189 137.966C99.1937 138.589 76.0216 100.536 76.0216 100.536C75.424 99.5804 75.6748 98.3253 76.5936 97.673L87.6003 89.6973" stroke="#263238" stroke-opacity="0.73" stroke-miterlimit="10" stroke-linecap="round" stroke-linejoin="round"/>
<path d="M125.394 120.828C126.429 123.337 128.692 125.103 130.929 126.64C133.167 128.177 135.546 129.675 137.035 131.945C138.524 134.215 138.83 137.534 136.931 139.475C136.555 139.86 136.038 140.192 135.51 140.087C134.278 139.842 134.498 137.831 133.495 137.076C131.98 139.218 128.852 140.043 127.096 140.291L128.028 136.192C128.028 136.192 130.326 135.937 132.043 133.48C132.043 133.48 131.975 132.379 127.977 131.076C123.98 129.774 119.833 124.675 119.833 124.675L125.394 120.828Z" fill="#FDA867"/>
<path opacity="0.6" d="M125.394 120.828C126.429 123.337 128.692 125.103 130.929 126.64C133.167 128.177 135.546 129.675 137.035 131.945C138.524 134.215 138.83 137.534 136.931 139.475C136.555 139.86 136.038 140.192 135.51 140.087C134.278 139.842 134.498 137.831 133.495 137.076C131.98 139.218 128.852 140.043 127.096 140.291L128.028 136.192C128.028 136.192 130.326 135.937 132.043 133.48C132.043 133.48 131.975 132.379 127.977 131.076C123.98 129.774 119.833 124.675 119.833 124.675L125.394 120.828Z" fill="white"/>
<path d="M131.973 148.188C131.973 148.188 125.573 144.857 127.83 136.299C127.83 136.299 123.437 135.901 119.695 139.968C115.953 144.035 112.19 149.702 112.19 149.702C112.19 149.702 106.653 151.38 106.706 153.507C106.758 155.635 108.36 156.595 109.453 157.463C110.546 158.331 111.026 160.294 111.585 162.685C112.144 165.075 114.956 170.393 118.866 170.623C122.776 170.852 123.053 169.41 123.053 169.41C123.053 169.41 122.225 167.951 121.146 166.148C120.068 164.345 118.601 160.069 118.568 156.666C118.535 153.262 119.92 151.752 122.31 151.193C124.7 150.634 129.057 149.761 131.973 148.188Z" fill="#FDA867"/>
<path d="M120.061 124.825C119.388 124.144 124.01 129.692 128.876 131.4C133.653 133.076 133.631 135.458 133.631 135.458" stroke="#263238" stroke-opacity="0.73" stroke-miterlimit="10" stroke-linecap="round" stroke-linejoin="round"/>
<path d="M137.942 112.649C137.942 112.649 145.483 123.681 146.999 133.582C146.999 133.582 143.97 137.869 142.428 141.831C140.885 145.794 128.039 149.931 122.646 151.235C121.191 151.587 119.696 152.313 119.014 153.723C118.254 155.294 118.61 157.378 118.805 159.043C119.02 160.872 119.412 162.7 120.161 164.39C120.883 166.02 122.116 167.333 122.868 168.921C123.487 170.227 121.899 170.397 120.927 170.528C114.949 171.337 111.968 164.811 111.256 161.02C110.544 157.228 107.109 156.323 106.737 154.47C106.049 151.048 112.19 149.703 112.19 149.703C112.073 149.953 116.75 142.829 119.695 139.968C120.836 138.859 122.067 137.774 123.586 137.182C125.143 136.575 126.882 136.533 128.51 136.121C130.139 135.709 131.809 134.732 132.143 133.185" stroke="#263238" stroke-opacity="0.73" stroke-miterlimit="10" stroke-linecap="round" stroke-linejoin="round"/>
<path d="M127.913 136.351C127.913 136.351 124.841 144.133 132.163 148.235" stroke="#263238" stroke-opacity="0.73" stroke-miterlimit="10" stroke-linecap="round" stroke-linejoin="round"/>
<path d="M122.076 123.388C122.076 123.388 125.256 127.655 130.698 129.692" stroke="#263238" stroke-opacity="0.73" stroke-miterlimit="10" stroke-linecap="round" stroke-linejoin="round"/>
<path d="M128.86 137.646C127.435 137.77 126.01 138.01 124.677 138.527C123.343 139.043 122.101 139.849 121.212 140.97" stroke="#263238" stroke-opacity="0.73" stroke-miterlimit="10" stroke-linecap="round" stroke-linejoin="round"/>
<path opacity="0.2" d="M127.236 140.454C124.628 141.499 122.018 142.576 119.619 144.037C117.22 145.499 115.022 147.372 113.52 149.746C113.333 150.041 113.154 150.347 112.907 150.594C112.331 151.171 111.481 151.345 110.719 151.635C109.033 152.279 106.995 154.949 107.03 154.778C107.03 154.778 104.529 151.743 112.189 149.702C112.189 149.702 116.123 143.962 118.759 141.059C121.396 138.157 122.888 136.813 127.695 136.326L127.236 140.454Z" fill="black" fill-opacity="0.52"/>
<path d="M127.593 61.496L128.123 61.0234C128.123 61.0234 126.816 59.1529 126.239 57.8426C125.662 56.5328 125.045 53.9935 122.828 53.6346C120.611 53.2756 117.172 54.71 117.172 54.71C117.172 54.71 112.273 52.859 108.029 53.8247C108.029 53.8247 102.152 55.2534 97.1812 61.25C92.2106 67.2465 88.2925 71.741 78.7584 74.7947C69.2238 77.8483 57.6178 78.8851 54.0759 81.0569C54.0759 81.0569 60.6831 83.3028 61.0885 88.7308C61.4939 94.1589 57.906 98.3331 59.5912 101.612C61.276 104.89 64.4103 105.589 65.7913 107.453C67.1727 109.317 68.8818 113.792 69.6743 115.538C70.4668 117.283 75.601 122.645 82.0112 123.245C82.0112 123.245 83.2776 117.433 84.8865 115.018L76.022 100.536C76.022 100.536 74.9756 98.9181 76.732 97.4811C78.4889 96.0442 87.6003 89.6982 87.6003 89.6982C87.6003 89.6982 86.109 86.9432 85.8178 84.7159C85.5266 82.4886 83.9191 81.0968 83.9191 81.0968C83.9191 81.0968 84.9455 77.9255 87.3594 76.065C89.7733 74.204 94.3398 69.828 96.3349 66.9848C98.33 64.1417 102.794 55.8059 110.996 54.7925C110.996 54.7925 113.155 55.4218 115.403 57.3535C117.651 59.2848 121.992 62.6036 127.593 61.496Z" fill="#FDA867"/>
<path opacity="0.2" d="M82.0108 123.245C82.0108 123.245 76.5432 123.232 71.8873 118.16C67.2313 113.089 68.4313 110.517 66.3251 108.073C64.2189 105.63 60.4891 104.107 59.5908 101.612C58.692 99.1161 60.75 92.9855 61.0507 90.8467C61.3511 88.708 59.9679 82.5369 54.0759 81.057C54.0759 81.057 60.9704 78.5215 66.9675 77.6301C72.9645 76.7391 81.3941 74.4563 85.2684 72.1929C89.1427 69.9301 95.723 63.1592 96.9721 61.7019C98.2211 60.2445 102.911 55.267 106.52 54.4285C109.427 53.7532 110.996 54.7913 110.996 54.7913C110.996 54.7913 104.071 56.2673 100.354 60.9024C97.3822 64.6088 96.7772 67.488 92.79 71.2672C88.8029 75.0465 85.287 76.8372 83.8878 80.7454C83.8878 80.7454 85.3396 82.8633 85.56 84.1852C85.7801 85.5072 87.6007 89.6975 87.6007 89.6975L76.594 97.6731C76.594 97.6731 74.8641 98.6474 76.0815 100.81C77.2988 102.971 84.9212 115.131 84.9212 115.131C84.9212 115.131 81.8849 121.119 82.0108 123.245Z" fill="black" fill-opacity="0.52"/>
<path opacity="0.38" d="M117.621 54.6597C117.621 54.6597 122.184 53.1133 123.633 53.9818C125.081 54.8502 128.138 61.2825 128.138 61.2825L127.32 61.9626C127.32 61.9626 120.943 61.3654 118.66 59.7149C116.377 58.0644 113.468 54.5577 108.204 54.1701C108.204 54.1701 111.145 52.9454 117.621 54.6597Z" fill="white"/>
<path d="M107.548 54.1294C101.809 55.792 100.037 58.6356 96.9721 61.7027C94.7249 63.9512 92.672 66.3925 90.3402 68.5534C80.6242 77.5558 66.1134 76.2473 53.77 81.0526C57.4664 81.7921 60.313 84.4821 60.9762 88.3425C61.6623 92.3357 58.2194 98.1769 59.7879 101.913C60.8138 104.357 63.7559 105.3 65.5904 107.214C67.7422 109.459 68.1801 112.811 69.6744 115.538C72.1386 120.035 76.8909 122.428 82.0113 123.246" stroke="#263238" stroke-opacity="0.73" stroke-miterlimit="10" stroke-linecap="round" stroke-linejoin="round"/>
<path d="M84.6943 82.2507C83.9968 82.9625 83.3693 83.7394 82.6805 84.4598C79.2285 88.0724 74.4657 90.074 69.8467 91.9793" stroke="#263238" stroke-opacity="0.73" stroke-miterlimit="10" stroke-linecap="round" stroke-linejoin="round"/>
<path d="M85.8981 85.4749C83.3206 88.5194 79.7223 89.9702 76.2273 91.8928C72.7323 93.8155 69.2012 96.3014 67.8394 100.051" stroke="#263238" stroke-opacity="0.73" stroke-miterlimit="10" stroke-linecap="round" stroke-linejoin="round"/>
<path d="M119.54 56.6382C115.104 51.5326 106.521 54.4287 106.521 54.4287C109.801 54.0164 112.287 54.4209 117.142 58.5009C120.928 61.6839 125.463 61.8375 127.219 61.7347" stroke="#263238" stroke-opacity="0.73" stroke-miterlimit="10" stroke-linecap="round" stroke-linejoin="round"/>
<path d="M117.092 54.7455C118.522 54.3328 119.976 54.0007 121.444 53.7521C121.838 53.6852 122.24 53.624 122.638 53.6679C123.492 53.7616 124.232 54.3323 124.748 55.0189C125.264 55.7055 125.597 56.5088 125.966 57.2844C126.586 58.5864 127.322 59.8328 128.164 61.0038" stroke="#263238" stroke-opacity="0.73" stroke-miterlimit="10" stroke-linecap="round" stroke-linejoin="round"/>
<path d="M89.1655 122.091C89.1655 122.091 84.0668 126.235 82.6685 133.067C82.6685 133.067 81.1668 131.673 81.8118 129.322C81.8118 129.322 67.4798 135.424 61.9133 150.949L60.7107 147.487C60.7107 147.487 62.6416 136.557 69.5652 131.695C76.5691 126.776 81.6777 125.605 81.6777 125.605C81.6777 125.605 82.5413 118.038 84.9426 115.334L89.1655 122.091Z" fill="#FDA867"/>
<path opacity="0.6" d="M89.165 122.111C89.165 122.111 84.0668 126.235 82.668 133.067C82.668 133.067 81.1664 131.673 81.8113 129.322C81.8113 129.322 67.4793 135.425 61.9128 150.949L60.7102 147.487C60.7102 147.487 62.6411 136.557 69.5647 131.695C76.5686 126.776 81.6772 125.605 81.6772 125.605C81.6772 125.605 82.5391 118.14 84.9409 115.436L89.165 122.111Z" fill="white"/>
<path d="M95.7481 131.975C94.8927 132.357 94.131 132.721 93.2036 133.096C93.2036 133.096 90.9819 140.448 82.0481 143.175C80.5447 148.089 78.1243 150.513 75.9104 152.87C72.4805 156.522 67.9721 157.123 64.284 160.577C60.4878 164.132 57.166 167.925 57.0826 173.413C57.0162 177.79 68.7824 183.102 63.2667 186.34C57.7475 189.577 50.4828 185.143 50.2458 180.914C50.0054 176.681 49.3075 175.106 47.2196 172.813C44.8933 170.258 46.6558 168.046 48.6978 165.891C52.9102 161.444 56.5202 157.441 59.145 151.854C61.2004 146.11 62.5181 137.629 68.844 132.014C72.9879 128.337 81.6774 125.605 81.6774 125.605C81.6774 125.605 82.0741 119.959 84.9298 115.14" stroke="#263238" stroke-opacity="0.73" stroke-miterlimit="10" stroke-linecap="round" stroke-linejoin="round"/>
<path d="M60.644 147.115C60.7938 146.688 61.9287 155.745 70.5006 156.591" stroke="#263238" stroke-opacity="0.73" stroke-miterlimit="10" stroke-linecap="round" stroke-linejoin="round"/>
<path d="M75.4808 129.65C72.0318 131.261 69.0693 133.91 67.2925 137.268" stroke="#263238" stroke-opacity="0.73" stroke-miterlimit="10" stroke-linecap="round" stroke-linejoin="round"/>
<path d="M79.2949 128.344C78.3032 128.568 77.3285 128.874 76.3845 129.256" stroke="#263238" stroke-opacity="0.73" stroke-miterlimit="10" stroke-linecap="round" stroke-linejoin="round"/>
<path d="M52.8152 183.147C52.8152 183.147 55.3011 187.239 60.4705 186.217" stroke="#263238" stroke-opacity="0.73" stroke-miterlimit="10" stroke-linecap="round" stroke-linejoin="round"/>
<path opacity="0.2" d="M61.973 150.543C60.5005 154.66 58.4099 158.352 55.1757 161.295C53.8008 162.546 52.2918 163.658 51.0545 165.046C49.8171 166.433 48.848 168.173 48.848 170.032C48.848 171.101 49.1666 172.142 49.4816 173.164C49.9816 174.783 50.4816 176.403 50.9815 178.023C51.33 179.152 51.6868 180.299 52.3404 181.283C52.9814 182.248 53.8859 183.017 54.8715 183.627C56.2755 184.495 57.9038 185.065 59.5535 185.005C61.2031 184.945 63.1926 183.638 64.1439 182.289C64.1439 182.289 65.4754 183.546 64.2776 185.627C63.0797 187.708 57.7224 187.746 56.0997 187.099C54.477 186.453 51.0111 184.301 50.347 181.958C49.683 179.616 50.65 177.376 49.0485 175.33C47.447 173.284 45.1811 171.616 46.2075 169.223C47.2344 166.829 52.9098 161.706 54.5009 159.32C56.0919 156.935 59.9857 151.643 60.517 147.375L61.973 150.543Z" fill="black" fill-opacity="0.52"/>
<path d="M97.1626 97.7181C97.1626 97.7181 102.404 98.3574 104.964 91.6091C104.964 91.6091 107.997 96.1023 110.487 97.7784C110.487 97.7784 111.545 97.502 113.877 98.064C116.209 98.626 119.447 98.5709 119.447 98.5709C119.447 98.5709 118.87 100.597 117.582 100.636C116.295 100.675 115.181 100.061 115.181 100.061L114.893 100.77L123.509 107.221C123.509 107.221 124.301 108.244 123.27 109.098L117.186 104.891L116.897 105.6C116.897 105.6 120.534 110.453 120.639 111.215C120.745 111.977 120.568 112.033 119.982 112.083C119.396 112.132 118.532 111.242 118.532 111.242L115.283 106.57L114.719 107.084C114.719 107.084 117.046 111.842 116.745 112.871C116.444 113.901 115.12 112.477 115.12 112.477L113.312 108.236C113.312 108.236 114.021 111.582 112.961 112.034C111.901 112.486 111.823 111.137 111.541 107.945L108.728 104.104C108.728 104.105 100.531 100.369 97.1626 97.7181Z" fill="#FDA867"/>
<path opacity="0.2" d="M100.113 97.1228L109.254 103.403L111.541 107.946L109.129 104.482L97.1228 98.1397L100.113 97.1228Z" fill="black" fill-opacity="0.52"/>
<path d="M114.165 56.499C110.182 58.6886 109.623 59.3344 107.547 61.1541C104.942 63.437 102.54 66.3469 102.28 69.8007C102.235 70.3953 102.263 71.0215 102.554 71.5419C103.101 72.5193 104.437 72.8122 105.514 72.5045C106.591 72.1968 107.468 71.4325 108.306 70.6904C108.076 70.8944 107.94 71.5892 107.747 71.8791C107.494 72.2602 107.181 72.5948 106.829 72.8856C106.048 73.5292 105.085 73.9146 104.121 74.1893C101.737 74.8681 99.12 74.8273 96.6566 75.3177C94.0717 75.8324 92.2763 77.1796 90.6054 79.1886C89.4232 80.6099 91.4933 84.2859 92.0706 86.0423C93.4507 90.2404 96.9717 94.0153 100.113 97.1232L97.1627 97.7191C97.1627 97.7191 89.201 93.5049 87.6008 89.6987C86.0002 85.8926 85.1205 82.6645 83.7512 80.8746C83.7512 80.8746 84.9078 78.1487 90.0034 73.6646C95.099 69.1805 97.7312 64.7641 99.7064 62.0746C102.373 58.4429 108.518 55.0204 110.996 54.7925C110.986 54.7804 112.044 54.9562 114.165 56.499Z" fill="#FDA867"/>
<path opacity="0.6" d="M114.223 56.4695C110.24 58.6591 109.623 59.3344 107.547 61.1541C104.942 63.437 102.54 66.3469 102.28 69.8007C102.235 70.3953 102.263 71.0216 102.554 71.5419C103.101 72.5193 104.437 72.8122 105.514 72.5045C106.591 72.1968 107.468 71.4326 108.306 70.6904C108.076 70.8944 107.94 71.5892 107.747 71.8791C107.494 72.2602 107.181 72.5948 106.829 72.8856C106.048 73.5292 105.085 73.9146 104.121 74.1893C101.737 74.8681 99.12 74.8273 96.6566 75.3177C94.0717 75.8324 92.2763 77.1796 90.6054 79.1886C89.4232 80.6099 91.4933 84.2859 92.0706 86.0423C93.4507 90.2404 96.9717 94.0153 100.113 97.1232L97.1627 97.7191C97.1627 97.7191 89.201 93.5049 87.6008 89.6987C86.0002 85.8926 85.1205 82.6645 83.7512 80.8747C83.7512 80.8747 84.9078 78.1487 90.0034 73.6646C95.099 69.1805 97.7312 64.7641 99.7064 62.0747C102.373 58.4429 108.817 55.0425 111.296 54.8147C111.296 54.8138 112.676 55.4136 114.223 56.4695Z" fill="white"/>
<path d="M101.181 83.4734C104.779 81.0191 110.503 75.9903 111.51 69.8188" stroke="#263238" stroke-opacity="0.73" stroke-miterlimit="10" stroke-linecap="round" stroke-linejoin="round"/>
<path d="M111.67 98.5464C110.471 97.7895 106.5 95.3083 104.463 89.7809C102.602 84.7321 100.639 81.8013 95.6775 79.9143" stroke="#263238" stroke-opacity="0.73" stroke-miterlimit="10" stroke-linecap="round" stroke-linejoin="round"/>
<path d="M88.9604 89.0027C90.4803 91.4392 92.7059 93.4399 95.3164 94.6412" stroke="#263238" stroke-opacity="0.73" stroke-miterlimit="10" stroke-linecap="round" stroke-linejoin="round"/>
<path d="M87.4446 85.7346C87.7024 86.5449 88.034 87.3309 88.4306 88.0821" stroke="#263238" stroke-opacity="0.73" stroke-miterlimit="10" stroke-linecap="round" stroke-linejoin="round"/>
<path d="M97.1626 97.7182C97.1626 97.7182 102.927 97.8722 105.082 91.3423" stroke="#263238" stroke-opacity="0.73" stroke-miterlimit="10" stroke-linecap="round" stroke-linejoin="round"/>
<path d="M107.243 57.8931C108.137 57.5281 109.119 57.2264 110.194 57.0186" stroke="#263238" stroke-opacity="0.73" stroke-miterlimit="10" stroke-linecap="round" stroke-linejoin="round"/>
<path d="M99.5193 64.9013C99.5193 64.9013 101.401 60.7662 106.192 58.3696" stroke="#263238" stroke-opacity="0.73" stroke-miterlimit="10" stroke-linecap="round" stroke-linejoin="round"/>
<path d="M95.6125 78.771C97.1966 79.1729 98.5802 80.3035 99.2898 81.7756" stroke="#263238" stroke-opacity="0.73" stroke-miterlimit="10" stroke-linecap="round" stroke-linejoin="round"/>
<path d="M110.822 97.9398C111.966 97.4151 113.406 97.8431 114.113 98.0631C115.048 98.3543 118.747 98.8747 119.447 98.5713C120.147 98.2679 118.834 100.164 118.028 100.536C117.223 100.908 115.181 100.062 115.181 100.062L114.893 100.771C114.893 100.771 123.217 106.592 123.676 107.417C124.134 108.241 123.828 109.037 123.27 109.099C122.712 109.161 117.186 104.892 117.186 104.892L116.898 105.601C116.898 105.601 121.241 111.159 120.798 111.745C120.355 112.33 119.453 112.091 118.75 111.351C118.047 110.61 115.284 106.571 115.284 106.571L114.72 107.085C114.72 107.085 117.049 112.302 116.746 112.872C116.442 113.442 115.714 113.241 115.287 112.695C114.859 112.15 113.143 107.881 113.143 107.881C113.143 107.881 113.598 111.472 113.331 111.868C113.065 112.265 112.387 112.255 112.114 111.834C111.841 111.413 111.541 107.946 111.541 107.946L108.728 104.105C102.842 101.776 92.2941 94.6892 92.2941 94.6892C86.7319 90.2151 86.2137 86.576 85.5601 84.1855C85.0237 82.2238 83.9192 81.0963 83.9192 81.0963C85.4265 75.2859 92.3683 74.0989 97.7113 64.8786C103.054 55.6583 111.395 54.8271 111.395 54.8271" stroke="#263238" stroke-opacity="0.73" stroke-miterlimit="10" stroke-linecap="round" stroke-linejoin="round"/>
<path d="M38.2831 138.753L28.552 146.801" stroke="#263238" stroke-miterlimit="10" stroke-linecap="round" stroke-linejoin="round"/>
<path d="M63.6699 117.759L44.1733 133.882" stroke="#263238" stroke-miterlimit="10" stroke-linecap="round" stroke-linejoin="round"/>
<path d="M38.103 110.596L34.2595 113.775" stroke="#263238" stroke-miterlimit="10" stroke-linecap="round" stroke-linejoin="round"/>
<path d="M56.3085 95.5405L41.115 108.106" stroke="#263238" stroke-miterlimit="10" stroke-linecap="round" stroke-linejoin="round"/>
<path d="M46.7796 106.463L37.5176 114.123" stroke="#263238" stroke-miterlimit="10" stroke-linecap="round" stroke-linejoin="round"/>
<path d="M95.4544 144.577L83.3975 154.548" stroke="#263238" stroke-miterlimit="10" stroke-linecap="round" stroke-linejoin="round"/>
<path d="M101.898 139.248L97.1035 143.213" stroke="#263238" stroke-miterlimit="10" stroke-linecap="round" stroke-linejoin="round"/>
<path d="M100.062 143.621L95.2668 147.586" stroke="#263238" stroke-miterlimit="10" stroke-linecap="round" stroke-linejoin="round"/>
<path d="M153.879 56.937L150.93 59.3757" stroke="#263238" stroke-miterlimit="10" stroke-linecap="round" stroke-linejoin="round"/>
<path d="M165.848 47.0383L155.287 55.7726" stroke="#263238" stroke-miterlimit="10" stroke-linecap="round" stroke-linejoin="round"/>
<path d="M145.489 107.313H187.362C187.362 107.313 186.943 105.324 185.164 104.696C183.385 104.068 182.128 104.696 182.128 102.602C182.128 100.509 181.605 99.462 179.616 99.0431C179.616 99.0431 178.359 94.5417 174.382 94.1229C170.404 93.7041 167.577 94.2275 166.949 96.6353C166.321 99.0431 165.693 100.299 164.542 100.195C163.39 100.09 161.506 98.9385 160.564 101.137C159.621 103.335 159.621 104.591 158.156 104.173C156.69 103.754 153.759 101.869 151.456 105.638C151.456 105.638 147.687 104.068 145.489 107.313Z" fill="white"/>
<path d="M73.2389 61.999H31.3657C31.3657 61.999 31.7845 60.01 33.5639 59.382C35.3433 58.754 36.5998 59.382 36.5998 57.2884C36.5998 55.1948 37.1232 54.148 39.1122 53.7292C39.1122 53.7292 40.3686 49.2277 44.3462 48.8089C48.3243 48.3901 51.1505 48.9135 51.7789 51.3213C52.4069 53.7292 53.0349 54.9852 54.1867 54.8806C55.3381 54.776 57.2226 53.6241 58.1648 55.8228C59.107 58.021 59.107 59.2774 60.5726 58.8586C62.0382 58.4398 64.9695 56.5558 67.2723 60.3242C67.2723 60.3242 71.0407 58.754 73.2389 61.999Z" fill="white"/>
</svg>
