<svg width="4" height="18" viewBox="0 0 4 18" fill="none" xmlns="http://www.w3.org/2000/svg">
<path d="M2 14C3.10457 14 4 14.8954 4 16C4 17.1046 3.10457 18 2 18C0.89543 18 -3.30425e-08 17.1046 -7.38026e-08 16C-1.14563e-07 14.8954 0.89543 14 2 14Z" fill="#FDA867"/>
<path d="M2 -1.03557e-07C3.10457 -1.60749e-07 4 0.895429 4 2C4 3.10457 3.10457 4 2 4C0.89543 4 -5.4966e-07 3.10457 -5.9042e-07 2C-6.31181e-07 0.89543 0.89543 -4.63639e-08 2 -1.03557e-07Z" fill="#FDA867"/>
<path opacity="0.5" d="M2 7C3.10457 7 4 7.89543 4 9C4 10.1046 3.10457 11 2 11C0.89543 11 -3.91405e-08 10.1046 -8.74228e-08 9C-1.35705e-07 7.89543 0.89543 7 2 7Z" fill="#FDA867"/>
</svg>
