<svg width="35" height="35" viewBox="0 0 35 35" fill="none" xmlns="http://www.w3.org/2000/svg">
<path d="M8.38574 10.208C7.78168 10.208 7.29199 10.6977 7.29199 11.3018C7.29199 11.9058 7.78168 12.3955 8.38574 12.3955H14.2191C14.8231 12.3955 15.3128 11.9058 15.3128 11.3018C15.3128 10.6977 14.8231 10.208 14.2191 10.208H8.38574Z" fill="white"/>
<path fill-rule="evenodd" clip-rule="evenodd" d="M30.9001 11.6725C30.8093 11.6669 30.7105 11.667 30.608 11.667L30.5824 11.667H26.5638C23.2513 11.667 20.417 14.1988 20.417 17.5003C20.417 20.8019 23.2513 23.3336 26.5638 23.3336H30.5824L30.608 23.3337C30.7105 23.3337 30.8093 23.3337 30.9001 23.3282C32.2456 23.2457 33.4355 22.2233 33.5355 20.7953C33.5421 20.7017 33.542 20.6007 33.542 20.5072L33.542 20.4818V14.5189L33.542 14.4935C33.542 14.3999 33.5421 14.299 33.5355 14.2053C33.4355 12.7774 32.2456 11.755 30.9001 11.6725ZM26.2074 19.0559C27.0602 19.0559 27.7515 18.3594 27.7515 17.5003C27.7515 16.6412 27.0602 15.9448 26.2074 15.9448C25.3546 15.9448 24.6633 16.6412 24.6633 17.5003C24.6633 18.3594 25.3546 19.0559 26.2074 19.0559Z" fill="white"/>
<path opacity="0.5" d="M30.8286 11.6689C30.8286 9.94716 30.766 8.10027 29.6654 6.77626C29.5592 6.64845 29.446 6.52435 29.3256 6.4039C28.2342 5.31253 26.8503 4.8282 25.1406 4.59832C23.4792 4.37496 21.3564 4.37498 18.6764 4.375H15.5951C12.9151 4.37498 10.7923 4.37496 9.13092 4.59832C7.42114 4.8282 6.03725 5.31254 4.94589 6.4039C3.85453 7.49526 3.37019 8.87915 3.14031 10.5889C2.91695 12.2503 2.91697 14.3731 2.91699 17.0531V17.2177C2.91697 19.8977 2.91695 22.0206 3.14032 23.6819C3.37019 25.3917 3.85453 26.7756 4.94589 27.8669C6.03725 28.9583 7.42114 29.4426 9.13092 29.6725C10.7923 29.8959 12.915 29.8959 15.5951 29.8958H18.6763C21.3564 29.8959 23.4792 29.8959 25.1406 29.6725C26.8503 29.4426 28.2342 28.9583 29.3256 27.8669C29.6238 27.5687 29.8771 27.2481 30.0925 26.9042C30.7494 25.855 30.8286 24.569 30.8286 23.3311C30.7583 23.3334 30.6842 23.3334 30.6081 23.3333L26.5638 23.3333C23.2513 23.3333 20.417 20.8016 20.417 17.5C20.417 14.1984 23.2513 11.6667 26.5638 11.6667L30.608 11.6667C30.6841 11.6666 30.7583 11.6666 30.8286 11.6689Z" fill="white"/>
</svg>
